<?xml version="1.0" encoding="utf-8"?>
<!-- Generator: Adobe Illustrator 21.0.2, SVG Export Plug-In . SVG Version: 6.00 Build 0)  -->
<svg version="1.1" id="sun" xmlns="http://www.w3.org/2000/svg" xmlns:xlink="http://www.w3.org/1999/xlink" x="0px" y="0px" viewBox="0 0 46 46" width="100%" height="100%" style="enable-background:new 0 0 46 46;" xml:space="preserve">
<style type="text/css">
	.st0{fill:#FFC612;}
</style>
<path class="part-4 st0" d="M4,12H42C38.2,5.4,31.1,1,23,1S7.8,5.4,4,12z"/>
<path class="part-3 st0" d="M1,23h44c0-4-1.1-7.8-3-11H4C2.1,15.2,1,19,1,23z"/>
<path class="part-2 st0" d="M4,34H42c1.9-3.2,3-7,3-11H1C1,27,2.1,30.8,4,34z"/>
<path class="part-1 st0" d="M42,34H4c3.8,6.6,10.9,11,19,11S38.2,40.6,42,34z"/>
</svg>
