<?xml version="1.0" encoding="utf-8"?>
<!-- Generator: Adobe Illustrator 21.0.2, SVG Export Plug-In . SVG Version: 6.00 Build 0)  -->
<svg version="1.1" id="Layer_1" xmlns="http://www.w3.org/2000/svg" xmlns:xlink="http://www.w3.org/1999/xlink" x="0px" y="0px"
	 viewBox="0 0 101 4" style="enable-background:new 0 0 101 4;" xml:space="preserve">
<style type="text/css">
	.st0{filter:url(#Adobe_OpacityMaskFilter);}
	.st1{fill:#FFFFFF;}
	.st2{mask:url(#mask-2);fill:#FFFFFF;}
</style>
<title>Page 1</title>
<desc>Created with Sketch.</desc>
<g id="Page-1_1_">
	<g id="BetterDesk" transform="translate(-659.000000, -860.000000)">
		<g id="Page-1" transform="translate(659.000000, 860.000000)">
			<g id="Clip-2">
			</g>
			<defs>
				<filter id="Adobe_OpacityMaskFilter" filterUnits="userSpaceOnUse" x="0" y="0" width="100.7" height="3.8">
					<feColorMatrix  type="matrix" values="1 0 0 0 0  0 1 0 0 0  0 0 1 0 0  0 0 0 1 0"/>
				</filter>
			</defs>
			<mask maskUnits="userSpaceOnUse" x="0" y="0" width="100.7" height="3.8" id="mask-2">
				<g class="st0">
					<polygon id="path-1" class="st1" points="0,3.8 0,0 100.7,0 100.7,3.8 					"/>
				</g>
			</mask>
			<path id="Fill-1" class="st2" d="M10.7,3.5c1.8,0.1,3.7,0.2,5.5,0.2c2.6,0,5.3,0,7.9-0.1c2.3,0,4.6-0.1,6.8-0.1
				c1.8,0,3.6-0.1,5.5-0.1c2.1,0,4.2-0.1,6.3-0.1c4.8-0.1,9.7-0.3,14.5-0.4c1.9,0,3.8-0.1,5.8-0.1c1.4,0,2.8,0,4.2,0
				c0.6,0,1.3,0,1.9,0c1.5,0,3.1,0,4.6,0.1c0.7,0,1.3,0,2,0c2.2,0.1,4.4,0.2,6.7,0.3c2.4,0.1,4.9,0.2,7.3,0.3
				c2.1,0.1,4.2,0.1,6.4,0.1c1.6,0,3.1-0.1,4.7-0.2c-1-0.2-2-0.3-3.1-0.4c0,0,0.1,0,0.1,0c-2.2-0.3-4.5-0.6-6.8-0.8
				c-1.8-0.2-3.5-0.3-5.3-0.5c0.7,0,1.3-0.1,2-0.1c0.9,0,1.9-0.1,2.8-0.1c1.2-0.1,2.4-0.1,3.6-0.2c2.1-0.1,4.3-0.3,6.4-0.5
				c-2.2-0.2-4.4-0.2-6.5-0.3c-2.3,0-4.6,0-6.9,0c-2.2,0-4.4,0.1-6.6,0.1c-2,0.1-3.9,0.1-5.9,0.1c-1.6,0-3.2,0.1-4.8,0.1
				c-0.8,0-1.6,0-2.3,0c-2.6,0-5.2,0-7.8,0c-0.7,0-1.3,0-2,0c-1.1,0-2.3,0-3.4,0c-1.5,0-3.1,0-4.6,0c-0.6,0-1.1,0-1.7,0
				c-2.7-0.1-5.5-0.1-8.2-0.2c-2.2-0.1-4.3-0.1-6.5-0.2C29.1,0.4,25,0.2,20.9,0.1C18.8,0.1,16.6,0,14.5,0c-0.6,0-1.1,0-1.7,0
				c-1,0-2,0-3,0c-0.8,0-1.5,0-2.3,0C5.1,0.1,2.5,0.1,0,0.1c0.7,0.1,1.3,0.2,2,0.3c0.7,0.1,1.4,0.2,2,0.3C5.3,0.8,6.5,1,7.8,1.1
				c0.2,0,0.5,0,0.7,0.1c0.7,0.1,1.3,0.1,2,0.1c1.5,0.1,2.9,0.2,4.4,0.3c0.8,0,1.7,0.1,2.5,0.1C13.3,1.8,9.3,2.1,5.2,2.5
				C4,2.6,2.9,2.7,1.7,2.8C4.7,3.1,7.7,3.4,10.7,3.5z"/>
		</g>
	</g>
</g>
</svg>
