<svg xmlns="http://www.w3.org/2000/svg" viewBox="0 0 85.99 54.16"><defs><style>.cls-1{fill:#58c166;}</style></defs><title>discount</title><g id="Layer_2" data-name="Layer 2"><g id="Layer_1-2" data-name="Layer 1"><path class="cls-1" d="M1,16.39a1,1,0,0,0-1,1v32a1,1,0,0,0,1,1H12.14a1,1,0,0,0,1-1l.11-5.12c4.63.66,7.2,1.91,16.19,5.34h0c7.33,2.79,10,4.52,18.54,4.52,8.93,0,16.91-5.56,21.27-7.81h0l13.47-6.57h0a6.22,6.22,0,0,0,2.58-2.21,4.33,4.33,0,0,0,.54-3.44h0a4.62,4.62,0,0,0-5.74-3.29h0L62.36,36.3s0,0,0-.05c0-3-2-5.55-4.64-5.59h0l-16-.3L31.82,21a1,1,0,0,0-.69-.28H13.45V17.39a1,1,0,0,0-1-1Zm1,2h9.45V27.3a1,1,0,1,0,2,0V22.68H30.73l9.86,9.39a1,1,0,0,0,.67.28l16.42.31h0c1.35,0,2.68,1.49,2.68,3.59S59,39.84,57.7,39.84H38.57a1,1,0,0,0-.72.29,1,1,0,0,0,.72,1.71H57.7A4.68,4.68,0,0,0,62,38.51l18.74-5.76a2.64,2.64,0,0,1,3.22,1.89h0a2.19,2.19,0,0,1-.3,1.85A4.33,4.33,0,0,1,81.85,38h0L68.37,44.55h0C63.71,47,56.08,52.16,48,52.16c-8.28,0-10.39-1.55-17.82-4.38h0C21,44.29,18.3,43,13.29,42.28L13.45,35a1,1,0,0,0-1-1,1,1,0,0,0-.72.28,1,1,0,0,0-.31.7L11.16,48.4H2v-30Z"/><path class="cls-1" d="M59.9.3a1,1,0,0,0-.69.3L42.53,17.28a1,1,0,1,0,1.41,1.41L60.63,2A1,1,0,0,0,59.9.3Z"/><path class="cls-1" d="M45.28,0A3.53,3.53,0,0,0,43.6.47h0a3.57,3.57,0,0,0-1.3,4.84h0a3.55,3.55,0,0,0,6.14-3.55h0A3.55,3.55,0,0,0,45.28,0Zm.06,2a1.52,1.52,0,0,1,1.38.77h0A1.55,1.55,0,0,1,44,4.32,1.54,1.54,0,0,1,44.6,2.2h0A1.58,1.58,0,0,1,45.34,2Z"/><path class="cls-1" d="M57.2,12.87a3.48,3.48,0,0,0-1.84.47h0a3.55,3.55,0,0,0-1.29,4.84h0a3.56,3.56,0,0,0,4.83,1.29h0a3.56,3.56,0,0,0,1.31-4.84h0a3.57,3.57,0,0,0-3-1.77Zm-.1,2a1.55,1.55,0,0,1,.81,2.89h0a1.54,1.54,0,0,1-2.1-.57h0a1.52,1.52,0,0,1,.56-2.11h0a1.53,1.53,0,0,1,.73-.21Z"/></g></g></svg>