<?xml version="1.0" encoding="UTF-8"?>
<svg width="29px" height="24px" viewBox="0 0 29 24" version="1.1" xmlns="http://www.w3.org/2000/svg" xmlns:xlink="http://www.w3.org/1999/xlink">
    <!-- Generator: Sketch 45.2 (43514) - http://www.bohemiancoding.com/sketch -->
    <title>shirt</title>
    <desc>Created with Sketch.</desc>
    <defs></defs>
    <g id="Page-1" stroke="none" stroke-width="1" fill="none" fill-rule="evenodd">
        <g id="BetterDesk" transform="translate(-565.000000, -3881.000000)" fill="#58C166">
            <g id="Group-3" transform="translate(520.000000, 3865.000000)">
                <g id="Group-6" transform="translate(45.000000, 13.000000)">
                    <g id="shirt" transform="translate(0.000000, 3.000000)">
                        <path d="M22.6875444,24 L6.16454964,24 C5.86900449,24 5.63021045,23.7522902 5.63021045,23.4477426 L5.62303418,13.543967 L0.471937105,10.7437033 C0.24456652,10.6198106 0.0800981357,10.402828 0.0223218421,10.1486095 C-0.0366260874,9.88576312 0.0223218421,9.61232116 0.185618591,9.39851725 L6.18937367,1.51274782 C6.21514966,1.47967444 6.27636763,1.41784159 6.30836794,1.3909742 C6.88305533,0.554603564 7.99120318,0 9.18715049,0 L10.8659582,0 C11.1222536,0 11.3436195,0.187996077 11.391144,0.448723326 C11.6762909,1.98606806 12.9829578,3.1026921 14.4995672,3.1026921 C16.0158837,3.1026921 17.323649,1.98727898 17.6088691,0.448723326 C17.657492,0.189207002 17.8777595,0 18.1340549,0 L19.7684869,0 C20.8548862,0 21.8325431,0.451977686 22.4787736,1.24581458 C22.6088984,1.30666356 22.7227667,1.39748292 22.8105662,1.51183963 L28.8154929,9.39851725 C28.9776912,9.61232116 29.0365659,9.88576312 28.9776912,10.1486095 C28.9218921,10.3995737 28.7574237,10.6174644 28.5280028,10.7437033 L23.2281811,13.6240394 L23.2281811,23.1476603 C23.2281811,23.1571206 23.2218836,23.2960743 23.220712,23.3058374 L23.2218836,23.4468344 C23.2230552,23.7522902 22.9833092,24 22.6875444,24 Z M6.69281096,22.89435 L22.1532052,22.89435 L22.1592099,13.290581 C22.1592099,13.0857076 22.2699295,12.8965006 22.4447229,12.8012917 L27.8200418,9.8792544 L21.9701371,2.19654193 C21.8356919,2.17323162 21.8142363,2.16460378 21.7324415,2.05138231 C21.2930781,1.44977973 20.5777211,1.10595277 19.7684869,1.10595277 L18.5516698,1.10595277 C18.016159,2.92854598 16.3776995,4.20834214 14.4995672,4.20834214 C12.6222404,4.20834214 10.9826092,2.92854598 10.4483433,1.10595277 L9.18715049,1.10595277 C8.33017208,1.10595277 7.54671382,1.49148095 7.08875065,2.13803912 C7.06099753,2.17648598 7.01318014,2.22552844 6.97605393,2.25542315 L1.17989808,9.87955713 L6.40649244,12.721522 C6.58216459,12.8175635 6.69171255,13.0056352 6.69171255,13.2107356 L6.69171255,22.8946527 L6.69281096,22.8946527 L6.69281096,22.89435 Z" id="Fill-1"></path>
                        <g id="Group-10" transform="translate(5.000000, 10.000000)">
                            <path d="M18.1014096,5.08234962 C17.5508113,5.08234962 17.1592186,4.81455283 17.1592186,4.4784874 L17.1592186,0.804197478 C17.1592186,0.0774790367 18.2174626,0.140928347 18.2174626,0.182188866 C18.2174626,0.223449384 18.1014096,5.08234962 18.1014096,5.08234962 Z" id="Fill-5"></path>
                            <path d="M1.32392687,5.00995422 C0.773328547,5.00995422 0.791656631,4.92760032 0.791656631,4.59153489 L0.729175511,0.795740913 C0.729175511,0.0690224713 1.10062767,0.0295747604 1.45885092,0.0961606035 C1.81707417,0.162746447 1.68708303,5.00995422 1.32392687,5.00995422 Z" id="Fill-5-Copy" transform="translate(1.229176, 2.541767) scale(-1, 1) translate(-1.229176, -2.541767) "></path>
                        </g>
                    </g>
                </g>
            </g>
        </g>
    </g>
</svg>