<?xml version="1.0" encoding="UTF-8"?>
<svg width="15px" height="15px" viewBox="0 0 15 15" version="1.1" xmlns="http://www.w3.org/2000/svg" xmlns:xlink="http://www.w3.org/1999/xlink">
    <!-- Generator: Sketch 45.2 (43514) - http://www.bohemiancoding.com/sketch -->
    <title>Page 1</title>
    <desc>Created with Sketch.</desc>
    <defs>
        <polygon id="path-1" points="14.9274468 14.8943556 14.9274468 0.0720422535 0 0.0720422535 0 14.8943556 14.9274468 14.8943556"></polygon>
    </defs>
    <g id="Page-1" stroke="none" stroke-width="1" fill="none" fill-rule="evenodd">
        <g id="BetterDesk" transform="translate(-1122.000000, -84.000000)">
            <g id="Page-1" transform="translate(1122.000000, 84.000000)">
                <g id="Group-3" transform="translate(0.000000, 0.033592)">
                    <mask id="mask-2" fill="white">
                        <use xlink:href="#path-1"></use>
                    </mask>
                    <g id="Clip-2"></g>
                    <path d="M4.24856383,1.34248944 C2.61132979,1.34248944 1.27941489,2.66502465 1.27941489,4.29051761 L1.27941489,10.6756585 C1.27941489,12.3013627 2.61132979,13.6240035 4.24856383,13.6240035 L10.6787766,13.6240035 C12.3160106,13.6240035 13.6479255,12.3013627 13.6479255,10.6756585 L13.6479255,4.29051761 C13.6479255,2.66502465 12.3160106,1.34248944 10.6787766,1.34248944 L4.24856383,1.34248944 Z M10.6787766,14.8943556 L4.24856383,14.8943556 C1.90590426,14.8943556 -5.31914894e-05,13.0019261 -5.31914894e-05,10.6756585 L-5.31914894e-05,4.29051761 C-5.31914894e-05,1.96446127 1.90590426,0.0720316901 4.24856383,0.0720316901 L10.6787766,0.0720316901 C13.0214362,0.0720316901 14.9275,1.96446127 14.9275,4.29051761 L14.9275,10.6756585 C14.9275,13.0019261 13.0214362,14.8943556 10.6787766,14.8943556 L10.6787766,14.8943556 Z" id="Fill-1" fill="#FFFFFF" mask="url(#mask-2)"></path>
                </g>
                <path d="M7.46373404,4.99203169 C6.06160638,4.99203169 4.92107447,6.12463732 4.92107447,7.51678521 C4.92107447,8.9089331 6.06160638,10.0414331 7.46373404,10.0414331 C8.86575532,10.0414331 10.0062872,8.9089331 10.0062872,7.51678521 C10.0062872,6.12463732 8.86575532,4.99203169 7.46373404,4.99203169 M7.46373404,11.3119965 C5.35607447,11.3119965 3.6415,9.60949648 3.6415,7.51678521 C3.6415,5.42407394 5.35607447,3.72146831 7.46373404,3.72146831 C9.57118085,3.72146831 11.2858617,5.42407394 11.2858617,7.51678521 C11.2858617,9.60949648 9.57118085,11.3119965 7.46373404,11.3119965" id="Fill-4" fill="#FFFFFF"></path>
                <path d="M12.3683723,3.50444366 C12.3683723,4.0083169 11.9570957,4.41648592 11.4497553,4.41648592 C10.9425213,4.41648592 10.5310319,4.0083169 10.5310319,3.50444366 C10.5310319,3.00067606 10.9425213,2.59208451 11.4497553,2.59208451 C11.9570957,2.59208451 12.3683723,3.00067606 12.3683723,3.50444366" id="Fill-6" fill="#FFFFFF"></path>
            </g>
        </g>
    </g>
</svg>