<?xml version="1.0" encoding="UTF-8"?>
<svg width="42px" height="41px" viewBox="0 0 42 41" version="1.1" xmlns="http://www.w3.org/2000/svg" xmlns:xlink="http://www.w3.org/1999/xlink">
    <!-- Generator: Sketch 45.2 (43514) - http://www.bohemiancoding.com/sketch -->
    <title>logo semabio final 2</title>
    <desc>Created with Sketch.</desc>
    <defs>
        <polygon id="path-1" points="0.00743879415 40.890834 0.00743879415 0.113106954 41.9339704 0.113106954 41.9339704 40.890834"></polygon>
    </defs>
    <g id="Page-1" stroke="none" stroke-width="1" fill="none" fill-rule="evenodd">
        <g id="BetterDesk" transform="translate(-210.000000, -32.000000)">
            <g id="Group-22" transform="translate(210.000000, 32.000000)">
                <g id="logo-semabio-final-2">
                    <g id="Group-7">
                        <mask id="mask-2" fill="white">
                            <use xlink:href="#path-1"></use>
                        </mask>
                        <g id="Clip-2"></g>
                        <polyline id="Fill-1" fill="#C5C6C2" mask="url(#mask-2)" points="41.9339704 20.2672614 41.9145055 20.2608293 33.2403756 20.2608293 34.9459671 22.7062211 39.81441 21.0201751 41.9339704 20.2672614"></polyline>
                        <polyline id="Fill-3" fill="#C5C6C2" mask="url(#mask-2)" points="7.19405782 17.9382533 0 20.2855867 8.642639 20.2672614 7.19405782 17.9382533"></polyline>
                        <polyline id="Fill-4" fill="#C5C6C2" mask="url(#mask-2)" points="20.9951286 40.8982369 20.9951286 32.2056276 18.3081122 33.9835427 20.030689 38.7492047 20.9951286 40.8982369"></polyline>
                        <polyline id="Fill-5" fill="#C5C6C2" mask="url(#mask-2)" points="23.5320054 6.81226682 21.1953562 0.623544562 20.9951286 0.113106954 21.0074026 8.54891974 23.5320054 6.81226682"></polyline>
                        <path d="M20.9669852,32.1232246 C14.4122917,32.1232246 9.0985131,26.9218824 9.0985131,20.5056112 C9.0985131,14.0893401 14.4122917,8.88811924 20.9669852,8.88811924 C27.5218026,8.88811924 32.8353333,14.0893401 32.8353333,20.5056112 C32.8353333,26.9218824 27.5218026,32.1232246 20.9669852,32.1232246 Z M33.2598405,20.2672614 L41.9339704,20.2672614 L34.7960754,17.9382533 C34.7960754,15.4441964 32.2481645,11.9231963 32.2481645,11.9231963 L33.2974064,8.40219623 L29.2507024,9.35583834 C27.3639762,7.70692827 24.1868672,6.960568 23.5320054,6.81226682 L23.4055459,6.89843199 L21.0074026,8.54891974 L21.0074026,0.149272054 L20.9951286,0.113106954 L18.7346031,6.71505795 C18.7346031,6.71505795 14.8377907,7.52185519 12.7394309,9.35583834 L8.69285086,8.40219623 L9.7419688,11.9231963 C9.7419688,11.9231963 7.19405782,15.4441964 7.19405782,17.9382533 L8.642639,20.2672614 L0.0561628958,20.2672614 L0,20.2855867 L7.04416612,22.7062211 C7.04416612,22.7062211 7.49384122,26.0804977 9.8918605,29.0147251 L8.76773472,32.6824487 L12.8144387,31.6555055 C12.8144387,31.6555055 14.4979618,33.3669157 18.3081122,33.9835427 L20.9951286,32.2056276 L20.9951286,40.8982369 L23.0307546,34.0762613 C27.3022342,33.5626684 29.1758185,31.6555055 29.1758185,31.6555055 L33.2223985,32.6824487 L32.0982728,29.0147251 C34.496416,26.0804977 34.9459671,22.7062211 34.9459671,22.7062211 L33.2598405,20.2672614 L33.2598405,20.2672614 Z" id="Fill-6" fill="#FFF9F7" mask="url(#mask-2)"></path>
                    </g>
                    <path d="M20,20.0239278 C20.0740514,20.0003669 20.1856289,19.986586 20.2426685,20.0194823" id="Fill-8" fill="#FFFEFB"></path>
                    <path d="M21.3101701,20.3035444 C21.3735626,20.2070782 21.4372066,20.1101675 21.5003475,20.0132567 C21.4095353,19.9741368 21.3126857,20.026593 21.2133206,20.1052775 C21.1521922,20.1537328 21.0867873,20.1861846 21,20.2408636 C21.0299353,20.2755381 21.0782343,20.2773163 21.1081696,20.3119908 C21.223886,20.0599339 21.1735745,20.5120359 21.3101701,20.3035444" id="Fill-9" fill="#FFFEFB"></path>
                    <path d="M21.6271474,20.0655512 C21.5814179,20.025212 21.532059,20.0084582 21.4812485,20 C21.4205178,20.0354595 21.3593032,20.070919 21.2983305,20.1062158 C21.1669489,20.1825024 21.2153399,20.0170791 21.1040406,20.1093063 C21.075248,20.0966189 21.0287926,20.0959683 21,20.083281 C21.1638035,20.196491 21.2937334,20.3181593 21.4074522,20.4445447 L22,20.4388517 C21.9835471,20.413965 21.9680619,20.388753 21.951851,20.3637036 C21.8436971,20.2643195 21.7353012,20.1649354 21.6271474,20.0655512" id="Fill-10" fill="#FFFEFB"></path>
                    <path d="M29,18.3064038 C28.9148875,18.3846643 28.8323804,18.4657831 28.7437939,18.5405048 C28.3266266,18.8915203 27.8488094,18.9695087 27.3223565,18.8101294 C27.2169791,18.7782807 27.1152204,18.7356798 27,18.6938955 C27.1053774,18.5727618 27.1926612,18.4516281 27.3012231,18.3507741 C27.7799088,17.9057099 28.4100022,17.9219064 29,18.1889449 C29,18.2281433 29,18.2673416 29,18.3064038" id="Fill-11" fill="#FFF9F7"></path>
                    <path d="M21.159916,11 C21.2685144,11.1906255 21.376932,11.3811157 21.5003475,11.5980064 C21.3435033,11.689393 21.1931641,11.7767179 21,11.8890895 C21.0209607,11.5645657 20.953019,11.2786274 21.0818553,11 C21.1078756,11 21.1338958,11 21.159916,11" id="Fill-12" fill="#FFF9F7"></path>
                    <path d="M21.3978762,14 C21.2923849,13.9681067 21.2570843,13.8500896 21.220347,13.7588294 C21.134661,13.546088 21.055953,13.3279713 21.02291,13.0912204 C20.9605182,12.6434004 21.0295801,12.2229345 21.1812496,11.8095162 C21.2878697,11.5187736 21.424249,11.2537129 21.5879247,11 C22.123796,11.7825204 22.2123553,13.1083018 21.3978762,14" id="Fill-13" fill="#FFF9F7"></path>
                    <path d="M26,16.7621624 C26.2335701,16.5913453 26.4022058,16.4389352 26.6259226,16.3114769 C26.9640016,16.1188987 27.4052972,16.0112381 27.9225112,16.0033845 C28.2326458,15.9987214 28.5448802,15.991604 28.8485536,16.0386441 C28.9680847,16.0571329 29.0344728,16.1023733 28.981653,16.1562854 C28.7891112,16.3533631 28.6153066,16.5661481 28.2613978,16.698924 C27.9649932,16.8101842 27.6267527,16.9044281 27.2180858,16.8870028 C26.9444567,16.8753041 26.6643664,16.8990287 26.3981675,16.8491253 C26.2841285,16.8276913 26.1746122,16.8005307 26,16.7621624" id="Fill-14" fill="#FFF9F7"></path>
                    <path d="M17.117075,25 C16.8874371,24.4190304 17.0296781,23.8578649 17.2511778,23.3112429 C17.4316328,22.8659618 18.2574797,22.2263538 18.8832339,22 C19.0555508,22.5902527 19.0513048,23.1607014 18.774784,23.731769 C18.4572186,24.3879319 17.8767551,24.7645178 17.117075,25" id="Fill-15" fill="#FFF9F7"></path>
                    <path d="M26,20.5097882 C25.4341249,20.7816289 24.8520647,20.9671015 24.1279685,20.8566546 C24.0107397,20.8387117 23.9027379,20.7975265 23.7909545,20.766196 C23.6042959,20.7137617 23.2013311,20.5416765 23.1016488,20.4607937 C23.0529421,20.421189 23.0317652,20.3688476 23,20.3247804 C24.0664045,19.8234929 25.1659356,19.9158109 26,20.5097882" id="Fill-16" fill="#FFF9F7"></path>
                    <path d="M20.9852052,17.9985824 C20.5037776,18.0150956 20.1104764,17.8862205 19.7696046,17.6705909 C19.3643513,17.4142764 19.1675413,17.0652245 19.0738375,16.6820692 C19.0373439,16.5330909 19.0222047,16.3810015 19.0043564,16.2297496 C18.9955915,16.155081 19.0027628,16.0793354 19.0027628,16 C20.2725458,16.1749448 21.124008,16.9633928 20.9852052,17.9985824" id="Fill-17" fill="#FFF9F7"></path>
                    <path d="M20,12.7747849 C19.761697,12.8773946 19.489035,12.9106978 19.2420041,12.8755945 C18.2958626,12.7413017 18.2448213,12.5055694 18,12.1593966 C18.7292714,11.8218646 19.6877866,12.0173632 20,12.7747849" id="Fill-18" fill="#FFF9F7"></path>
                    <path d="M19.0639577,14 C19.2509504,14.104352 19.4193743,14.247856 19.5427313,14.5064188 C19.6029544,14.6323443 19.6821478,14.7371757 19.7362482,14.8686944 C19.9184231,15.3123102 20.0221072,15.7974751 19.9960106,16.3344164 C19.9852708,16.5568636 19.9564641,16.7773931 19.9356871,17 C19.342891,16.6642519 18.812727,15.3684014 19.0639577,14" id="Fill-19" fill="#FFF9F7"></path>
                    <path d="M17.5886756,19 C16.9639162,18.3351801 16.7421869,17.0301793 17.3933128,16 C17.5891779,16.1093454 17.6691561,16.3322642 17.7688464,16.531127 C17.9529094,16.8986733 18.0273632,17.311853 17.991078,17.7205132 C17.9515283,18.1646013 17.8012395,18.5844875 17.5886756,19" id="Fill-20" fill="#FFF9F7"></path>
                    <path d="M32,19.3209029 C31.3507995,19.8989898 30.1786409,20.1153391 29,19.5913905 C29.3446953,19.2697213 29.838159,19.0789628 30.420592,19.0149348 C31.0064283,18.950601 31.5298725,19.1018008 32,19.3209029" id="Fill-21" fill="#FFF9F7"></path>
                    <path d="M23.642861,15 C23.3673759,14.7149869 23.2313607,14.3564972 23.1174816,13.9869278 C22.9819782,13.5469433 22.9552358,13.0874235 23.0819103,12.6483137 C23.1458874,12.4264263 23.1723739,12.1597823 23.3465193,12 C23.8194376,12.5520945 24.0290263,13.2098843 23.9967819,13.9676839 C23.9842424,14.2655263 23.8044669,14.7893381 23.642861,15" id="Fill-22" fill="#FFF9F7"></path>
                    <path d="M28,20.4367361 C27.6743555,20.5766253 27.3788331,20.7052468 27.0800543,20.8303605 C27.0233921,20.8540651 26.9550068,20.8737304 26.8890638,20.8783013 C26.2120488,20.9256042 25.597232,20.8172858 25.0478697,20.5546214 C25.0227951,20.5426097 25.0149796,20.5155035 25,20.4963697 C25.8149254,19.8970571 27.101384,19.7970299 28,20.4367361" id="Fill-23" fill="#FFF9F7"></path>
                    <path d="M27.9893911,13 C27.9880475,13.142308 28.0199573,13.2911215 27.9791463,13.4255686 C27.8723325,13.7782213 27.7270589,14.1232843 27.4423898,14.4139991 C27.1928215,14.6689337 26.8727157,14.8498681 26.4889583,14.9481284 C26.3329361,14.9881101 26.1681807,15.0310736 26.0015779,14.9680515 C25.9545529,14.1152879 26.9664298,13.0822676 27.9893911,13" id="Fill-24" fill="#FFF9F7"></path>
                    <path d="M27,25.9954354 C26.6783535,26.0264586 26.4176695,25.9053626 26.2319931,25.446361 C26.2074886,25.3857249 26.1738198,25.3395427 26.1488172,25.2801404 C26.018525,24.969909 26.0114526,24.5794756 26.000296,24.195388 C25.9960127,24.0489094 26.0383477,23.9909172 26.118336,24.0011408 C26.484509,24.0471467 26.751369,24.3746524 26.8841515,25.0160912 C26.9454127,25.3111636 26.9604541,25.6467776 27,25.9954354" id="Fill-25" fill="#FFF9F7"></path>
                    <path d="M26,18 C26.1098641,16.9877376 26.8152381,16.351781 27.9792041,16 C28.0715824,16.2871602 27.8431111,17.0074612 27.5524496,17.2902096 C27.0966618,17.7336015 26.5894063,17.9588659 26,18" id="Fill-26" fill="#FFF9F7"></path>
                    <path d="M16.8721793,14 C16.6617426,13.9467579 16.5219879,13.8167266 16.385204,13.6984109 C16.197544,13.5359007 16.1000004,13.3140007 16.0273379,13.0857209 C16.017435,13.05475 16.0034471,13.0225032 16.0041898,12.9910683 C16.0112456,12.695163 15.9682918,12.3962417 16.0584082,12.1052082 C16.0699203,12.0680895 16.096163,12.0350307 16.1154737,12 C16.7475265,12.3133047 17.2440333,13.1633221 16.8721793,14" id="Fill-27" fill="#FFF9F7"></path>
                    <path d="M26,22.6178768 C25.6960849,22.8333437 25.3417574,22.8801639 24.9733865,22.8890895 C24.7780382,22.8048444 24.5709871,22.7364149 24.3914827,22.6313435 C24.2562693,22.5521093 24.1541841,22.4277775 24.0416563,22.320044 C23.9629769,22.2448812 24.0052874,22.1861602 24.0893681,22.1473261 C24.169848,22.1099012 24.2523084,22.0713803 24.33981,22.0502407 C24.7841597,21.9428205 25.2000624,22.0060825 25.5716742,22.2552161 C25.7209311,22.3554332 25.9173596,22.4154069 26,22.6178768" id="Fill-28" fill="#FFF9F7"></path>
                    <path d="M27,18.3384433 C26.440422,19.0269392 25.6722455,19.0490438 25,18.5205536 C25.2129646,18.2812182 25.4860833,18.1176219 25.8008004,18.0317843 C25.9536111,17.9900437 26.1315263,17.9944197 26.2918562,18.0162999 C26.5555151,18.0522058 26.7923716,18.1575672 27,18.3384433" id="Fill-29" fill="#FFF9F7"></path>
                    <path d="M24.9992849,12 C24.9844981,12.3946384 25.0442013,12.778803 24.9074509,13.1578554 C24.7512441,13.5907731 24.4691824,13.8482544 24.0900613,14 C23.7836513,13.2885287 24.3018577,12.2829177 24.9992849,12" id="Fill-30" fill="#FFF9F7"></path>
                    <path d="M15,15.8016981 C14.0467114,16.0940481 13.2308609,15.600131 13,15.0994777 C13.7294501,14.841845 14.5795348,15.0876635 15,15.8016981" id="Fill-31" fill="#FFF9F7"></path>
                    <path d="M13,20.2103223 C12.7614181,20.4937501 12.5537472,20.7780704 12.1044663,20.8590497 C11.6901337,20.9337828 11.3364875,20.8688654 11,20.66664 C11.4186223,20.0238243 12.2500631,19.7927095 13,20.2103223" id="Fill-32" fill="#FFF9F7"></path>
                    <path d="M17.0712664,22 C16.8220121,21.2566529 17.253191,20.2925926 17.9503789,20 C18.1355097,20.6995885 17.7938969,21.6750343 17.0712664,22" id="Fill-33" fill="#FFF9F7"></path>
                    <path d="M12.0138304,26 C11.9683604,25.5166238 12.0372123,25.0953827 12.1879469,24.7239741 C12.3663148,24.284513 12.6290607,24.0582418 12.9426369,24 C13.0639825,24.3131667 12.9883841,24.7776999 12.7577074,25.3093514 C12.5742565,25.7321498 12.3139134,25.887098 12.0138304,26" id="Fill-34" fill="#FFF9F7"></path>
                    <path d="M24,19.766134 C24.4280132,19.0950949 25.3639028,18.7849517 26,19.1638753 C25.9134204,19.3477106 25.7909391,19.4993948 25.6131396,19.6224876 C25.1036757,19.9756902 24.563683,19.9278081 24,19.766134" id="Fill-35" fill="#FFF9F7"></path>
                    <path d="M16,14.9903923 C15.4770119,15.0340912 15.0015682,14.9338014 14.6590479,14.5847126 C14.2418628,14.1596111 13.9778576,13.6325456 14.0014624,13 C15.1843797,13.1217207 15.9268419,14.1542534 16,14.9903923" id="Fill-36" fill="#FFF9F7"></path>
                    <path d="M23.6881288,19 C22.8213499,18.5066632 22.846777,17.5311166 23.3584251,17 C24.0498988,17.3611075 24.2177171,18.3612369 23.6881288,19" id="Fill-37" fill="#FFF9F7"></path>
                    <path d="M14,17 C13.3953321,16.9954021 12.9332136,16.7638027 12.5748654,16.4061861 C12.2150808,16.0473774 12.0535009,15.5712364 12,15.0596743 C12.1447038,14.9181603 12.2947935,15.0690404 12.4391382,15.0973092 C12.9116697,15.1896083 13.2786355,15.4653137 13.5470377,15.8220789 C13.7944345,16.1510862 13.9549372,16.5345875 14,17" id="Fill-38" fill="#FFF9F7"></path>
                    <path d="M26,20.6034084 C26.4033849,19.8632298 27.5139925,19.8822797 28,20.2417686 C27.7729211,20.5799033 27.5003998,20.8509027 27.1182036,20.8744077 C26.7357409,20.8979128 26.3375533,20.9357052 26,20.6034084" id="Fill-39" fill="#FFF9F7"></path>
                    <path d="M25.7613458,14 C26.2194966,14.6088386 26.0019023,15.5591641 25.2468047,16 C24.9306447,15.7164782 25.1126242,15.336211 25,15.0151422 C25.1348054,14.6151422 25.3545866,14.2632408 25.7613458,14" id="Fill-40" fill="#FFF9F7"></path>
                    <path d="M12.9998865,22 C13.0055751,22.3021798 12.7974091,22.516347 12.3812549,22.6868416 C11.9750558,22.8533314 11.5046825,22.8719256 11,22.8890895 C11.2076327,22.3097128 12.0331858,22.1310177 12.9998865,22" id="Fill-41" fill="#FFF9F7"></path>
                    <path d="M14,21.1314126 C13.704728,21.4780853 13.4021694,21.7969515 12.8574977,21.8682871 C12.5552703,21.907788 12.2402915,21.9083077 12,21.7122323 C12.2959344,21.1084137 13.1704894,20.809298 14,21.1314126" id="Fill-42" fill="#FFF9F7"></path>
                    <path d="M16.7382968,14 C15.9209867,13.5834888 15.8157785,12.6382289 16.2578185,12 C17.0920283,12.5115562 17.1786801,13.4305409 16.7382968,14" id="Fill-43" fill="#FFF9F7"></path>
                    <path d="M19,12.7773122 C18.4852433,12.9196807 17.9995569,12.9506241 17.5560578,12.7234156 C17.2873349,12.5856958 17.0542409,12.3940795 17,12.1105047 C17.5115661,11.9207768 17.9924665,11.9915253 18.4455375,12.1999934 C18.7089427,12.3210067 18.9399096,12.4857473 19,12.7773122" id="Fill-44" fill="#FFF9F7"></path>
                    <path d="M17.6863824,15 C18.2434548,15.4457391 18.0278741,16.5099821 17.2810011,17 C16.7794118,16.3996737 16.9703333,15.4577022 17.6863824,15" id="Fill-45" fill="#FFF9F7"></path>
                    <path d="M24.133306,16 C24.3895078,16.0937355 24.6449367,16.1871063 24.9165957,16.2863128 C24.8553468,16.4832669 25.0926136,16.6673338 24.9579435,16.8890895 C24.6470621,16.8062958 24.3487396,16.7267847 24.0243333,16.6402222 C23.9939987,16.4330557 23.9611523,16.2205399 24.133306,16" id="Fill-46" fill="#FFF9F7"></path>
                    <path d="M16.173168,17 C16.3914587,17.0721247 16.6148506,17.1432146 16.830378,17.2196854 C16.8720382,17.2344829 16.8977569,17.2691482 16.9047712,17.2961562 C16.9398422,17.4340934 16.971725,17.572341 16.9934052,17.7108991 C17.0033952,17.7758837 17.0223123,17.847698 16.8718256,17.8890895 C16.0441491,17.5344678 15.7931255,17.2285846 16.173168,17" id="Fill-47" fill="#FFF9F7"></path>
                    <path d="M22.704547,14.8890895 C22.45748,14.7196084 22.2405714,14.5707484 22,14.4056039 C22.1635514,14.2886045 22.1598396,14.1187695 22.5437794,14 C22.665805,14.0956705 22.7641678,14.1901905 22.9017366,14.2755062 C23.0186585,14.3479007 23.0123948,14.4247203 22.9787566,14.4957873 C22.9198317,14.6213714 22.8094055,14.7435039 22.704547,14.8890895" id="Fill-48" fill="#FFF9F7"></path>
                    <path d="M25,21.5687071 C25.1326814,21.0345226 25.7430826,20.8100195 26,21.1884003 C25.8728748,21.4154715 25.7485276,21.6378344 25.6078453,21.8890895 C25.5125014,21.8310911 25.4106012,21.7634619 25.306923,21.7080317 C25.2129125,21.6577379 25.1167908,21.6211411 25,21.5687071" id="Fill-49" fill="#FFF9F7"></path>
                    <path d="M18,15 C18.2293153,15 18.4304565,15 18.6495483,15 C18.7598669,15.2742574 18.8785069,15.5693964 19,15.8714338 C18.7240846,15.9706214 18.2624822,15.6480753 18,15" id="Fill-50" fill="#FFF9F7"></path>
                    <path d="M20.1960933,19.8890895 C20.1227715,19.6660841 20.0623804,19.4825361 20,19.2933752 C20.132292,19.2001352 20.2738202,19.1004446 20.4164852,19 C20.5794701,19.220911 20.5043009,19.5702471 20.1960933,19.8890895" id="Fill-51" fill="#FFF9F7"></path>
                    <path d="M19.7990498,20.1063409 C19.8660919,20.3674126 19.9313743,20.6217213 20,20.8890895 C19.5146929,20.6983288 19.004575,20.2421821 19,20 C19.2518036,20.0334647 19.5011438,20.0666963 19.7990498,20.1063409" id="Fill-52" fill="#FFF9F7"></path>
                    <path d="M22.0884487,15 C22.2373626,15.1530773 22.3660358,15.285634 22.5003475,15.4238172 C22.4007342,15.5772255 22.299386,15.7331161 22.1981824,15.8890895 C22.0157267,15.5980771 21.9178483,15.311864 22.0884487,15" id="Fill-53" fill="#FFF9F7"></path>
                    <path d="M19,18.695744 C19.0696668,18.455436 19.0458676,18.2378099 19.2762873,18 C19.5320208,18.3142489 19.7535699,18.5862315 20,18.8890895 C19.6196452,18.8155482 19.3063609,18.7549966 19,18.695744" id="Fill-54" fill="#FFF9F7"></path>
                    <path d="M19,19 C19.2480138,19.097579 19.4414508,19.1813123 19.6405872,19.2500461 C19.9613126,19.3606466 19.9310881,19.6329447 20,19.8890895 C19.7376511,19.8439262 19.5037997,19.8131031 19.2758204,19.7587095 C19.2096718,19.7428858 19.1274611,19.668383 19.1107081,19.6064071 C19.0604491,19.4198203 19.0388601,19.2264755 19,19" id="Fill-55" fill="#FFF9F7"></path>
                    <path d="M24,15 C24,15.205679 24,15.3948302 24,15.6037886 C23.703304,15.688395 23.392511,15.7770679 23,15.8890895 C23.1323789,15.4718287 23.2557269,15.1265818 24,15" id="Fill-56" fill="#FFF9F7"></path>
                    <path d="M24.9989431,17.8890895 C24.4347148,17.6874227 24.218859,17.3699189 24,17 C24.2879329,17.062898 24.5306299,17.1084991 24.7652557,17.1699556 C24.9090344,17.2076944 25.0038233,17.2848755 24.9998816,17.4055611 C24.9951891,17.5444608 24.9989431,17.6834916 24.9989431,17.8890895" id="Fill-57" fill="#FFF9F7"></path>
                    <path d="M20,18.5315434 C19.8625023,18.6529056 19.7384957,18.7623288 19.5948993,18.8890895 C19.3866198,18.577742 19.1962669,18.2933871 19,18 C19.4642395,18.0980033 19.6760303,18.338236 20,18.5315434" id="Fill-58" fill="#FFF9F7"></path>
                    <path d="M25,13.307515 C25.0908044,13.1246928 25.269823,13.0640981 25.3698374,13 C25.6059865,13 25.7962297,13 26,13 C25.9811484,13.2166878 25.8255864,13.3201011 25.6875809,13.4155994 C25.6238308,13.4595858 25.4928767,13.4446642 25.3987624,13.427926 C25.2722694,13.4052192 25.1519643,13.354875 25,13.307515" id="Fill-59" fill="#FFF9F7"></path>
                    <path d="M26,21.7151999 C26.1831006,21.4555345 26.3406425,21.2321413 26.5041899,21 C26.7076816,21.0637962 26.8639665,21.2270205 27,21.4753775 C26.8794693,21.6025431 26.7726257,21.7305622 26.6558659,21.8310572 C26.6013966,21.8779975 26.5243017,21.8995474 26.4627095,21.8841851 C26.322067,21.8496199 26.1844972,21.7849703 26,21.7151999" id="Fill-60" fill="#FFF9F7"></path>
                    <path d="M25.2877951,16.8890895 C24.9384731,16.734924 25.3151683,16.5147743 25,16.3718893 C25.1996484,16.2448938 25.3809643,16.1297852 25.5853842,16 C25.9337017,16.1601089 25.8131592,16.3781966 26,16.5589255 C25.7659468,16.6674842 25.52888,16.7774984 25.2877951,16.8890895" id="Fill-61" fill="#FFF9F7"></path>
                    <path d="M16.1782107,23.8890895 C15.988527,23.7678332 16.0487509,23.5823752 16.0049777,23.4340087 C15.9717902,23.3215017 16.1046832,23.208132 16.3997945,23 C16.4279753,23.129759 16.4511493,23.2624755 16.4863395,23.3926042 C16.5519993,23.6361025 16.3763344,23.7601931 16.1782107,23.8890895" id="Fill-62" fill="#FFF9F7"></path>
                    <path d="M23,15 C22.7214382,15.430008 22.3571778,15.7559101 22.0324075,15.8890895 C21.9527716,15.8163423 22.04355,15.7588302 22.0548563,15.6931927 C22.1171231,15.3359318 22.337023,15.1039789 22.8241784,15.0599244 C22.8630132,15.0563695 22.89939,15.0350405 23,15" id="Fill-63" fill="#FFF9F7"></path>
                    <path d="M22,20.8859009 C22.1173354,20.6132243 22.2188196,20.377835 22.3316,20.1157821 C22.5351149,20.0991174 22.7386299,19.9345532 22.997533,20.0291255 C23.0203077,20.3036769 22.879651,20.5249012 22.8120556,20.7638318 C22.79584,20.8215334 22.6919872,20.8750688 22.6253029,20.8804849 C22.432902,20.8958997 22.2388613,20.8859009 22,20.8859009" id="Fill-64" fill="#FFF9F7"></path>
                    <path d="M18.6472975,14.1036112 C18.7566953,14.3473603 18.869664,14.5987488 19,14.8885738 C18.7505275,14.8885738 18.5200454,14.8900062 18.2897257,14.8880963 C18.184548,14.8871414 18.115728,14.8191017 18.0947898,14.6567616 C18.0678461,14.4478679 18.0350592,14.2406455 18,14 C18.2379484,14.037959 18.4362928,14.0699495 18.6472975,14.1036112" id="Fill-65" fill="#FFF9F7"></path>
                    <path d="M27.795883,15 C27.8626711,15.0744405 27.9227805,15.1234785 27.9505643,15.1754985 C28.0360531,15.3349824 28.0464721,15.482759 27.6834118,15.602151 C27.4464475,15.6801258 27.2591736,15.783945 27.0200721,15.8890895 C26.9220271,15.6205955 27.1835694,15.3268094 27.795883,15" id="Fill-66" fill="#FFF9F7"></path>
                    <path d="M19.1925714,19.8890895 C18.7928748,19.5281977 19.0588208,19.2559027 19.5920088,19 C19.7257594,19.1278863 19.8548443,19.2512192 20,19.3900337 C19.6762509,19.5301492 19.6070428,19.7753838 19.1925714,19.8890895" id="Fill-67" fill="#FFF9F7"></path>
                    <path d="M16.9711071,18.8823942 C16.8219282,18.8823942 16.6710766,18.9020324 16.5243309,18.8740423 C16.448753,18.8595959 16.3625304,18.7823975 16.3128041,18.6941385 C16.2040754,18.5015941 16.1155718,18.283994 16,18.0361466 C16.1114659,18.025989 16.1931265,18.0286977 16.2720499,18.0090595 C16.4409976,17.9675259 16.5593066,18.0720371 16.6659063,18.2562297 C16.7694647,18.4354563 16.8879258,18.5954962 17,18.7638879 C16.9904197,18.80339 16.9806873,18.8428921 16.9711071,18.8823942" id="Fill-68" fill="#FFF9F7"></path>
                    <path d="M25.3986369,14 C25.6163303,14.0632072 25.800882,14.1167747 26,14.1746129 C25.9164773,14.3467854 25.711613,14.310545 25.5957504,14.4030374 C25.4075905,14.3506901 25.2147534,14.5238388 25,14.3970583 C25.0852599,14.3157919 25.1568889,14.2499003 25.2254443,14.1814461 C25.2902579,14.1165306 25.3518642,14.0491747 25.3986369,14" id="Fill-69" fill="#FFF9F7"></path>
                    <path d="M22.2070662,22 C22.397858,22.0904125 22.5886498,22.1807254 22.7792684,22.2711379 C22.9298935,22.3426315 23.0209611,22.4246799 22.9958569,22.547155 C22.9742154,22.6520056 22.9911824,22.7594451 22.9911824,22.8890895 C22.601981,22.8107253 22.2818594,22.7127453 22,22.55064 C22.2167616,22.3791749 21.9795704,22.1628022 22.2070662,22" id="Fill-70" fill="#FFF9F7"></path>
                    <path d="M22.9720412,21.8866852 C22.8002943,21.8866852 22.6282321,21.894698 22.4568005,21.8814676 C22.4099222,21.8777407 22.3575783,21.8255645 22.3198444,21.7698478 C22.2121085,21.6101514 22.1104688,21.4374109 22,21.2594528 C22.0959638,21.1265898 22.2172588,21.130503 22.328148,21.0822401 C22.3711373,21.0634194 22.4253731,21.0917436 22.4602691,21.0554066 C22.5778852,20.9333516 22.6705907,21.031741 22.7399622,21.1688898 C22.8372924,21.3608237 22.9143368,21.584995 23,21.7953769 C22.9906454,21.8259372 22.9812907,21.8563112 22.9720412,21.8866852" id="Fill-71" fill="#FFF9F7"></path>
                    <path d="M22.3736703,21.8890895 C22.0756655,21.6168051 21.9628811,21.3271885 22.0105365,21 C22.1620805,21.0752556 22.307747,21.1424601 22.4435648,21.2186102 C22.4793063,21.2386262 22.5055167,21.2880511 22.4994804,21.3207029 C22.466757,21.4980511 22.4225964,21.6745048 22.3736703,21.8890895" id="Fill-72" fill="#FFF9F7"></path>
                    <path d="M23,22 C23.3204565,22.2849831 23.6319579,22.561952 24,22.8890895 C23.6256365,22.825938 23.3178227,22.773846 23,22.7201512 C23,22.462256 23,22.2370585 23,22" id="Fill-73" fill="#FFF9F7"></path>
                    <path d="M22.3717506,21.4445447 C22.2620198,21.3222209 22.1425121,21.1889357 22,21.0300736 C22.3707154,20.9600154 22.6916264,21.0044968 23,21.2472381 C22.7884748,21.3136424 22.5870715,21.3768695 22.3717506,21.4445447" id="Fill-74" fill="#FFF9F7"></path>
                    <path d="M23,22.0811907 C23.2788126,21.9361833 23.5657742,22.0360734 23.8703919,22.005527 C23.9159876,22.3051974 23.9578968,22.581168 24,22.8573142 C23.975747,22.868023 23.951494,22.8785562 23.927435,22.8890895 C23.6237873,22.6245298 23.3203337,22.3601458 23,22.0811907" id="Fill-75" fill="#FFF9F7"></path>
                    <path d="M19.4171022,14.8890895 C19.2849657,14.761128 19.1504993,14.6341153 19.0231889,14.5042566 C19.000556,14.4813837 18.9950642,14.4448082 19.0042172,14.4176138 C19.0473197,14.2891254 19.0980774,14.161691 19.1589867,14 C19.3941364,14.2996658 19.5137915,14.5759318 19.4991467,14.8711707 C19.471854,14.8771787 19.4443949,14.8830814 19.4171022,14.8890895" id="Fill-76" fill="#FFF9F7"></path>
                    <path d="M26,21.8890895 C25.6006351,21.7319534 25.2558597,21.5130029 25,21 C25.2224406,21.0625848 25.3875699,21.1037945 25.5502798,21.1561732 C25.7070921,21.2068187 25.8433389,21.2715218 25.8549826,21.5382294 C25.860124,21.6581997 25.9490398,21.7722003 26,21.8890895" id="Fill-77" fill="#FFF9F7"></path>
                    <path d="M23.2365177,13 C23.2934735,13.0464343 23.3404932,13.0682727 23.3495422,13.0950744 C23.3860934,13.2005166 23.4057884,13.3080544 23.4407426,13.4137172 C23.5535897,13.753647 23.5551866,13.7534264 23,13.8890895 C23.0757637,13.6039764 23.1517049,13.3183119 23.2365177,13" id="Fill-78" fill="#FFF9F7"></path>
                    <path d="M21.222244,20 C21.3155432,20.1241021 21.399382,20.235354 21.5003475,20.3696436 C21.3561578,20.5360006 21.2020183,20.7135869 21.0496731,20.8890895 C20.940389,20.7441494 21.0173772,20.3074768 21.222244,20" id="Fill-79" fill="#FFF9F7"></path>
                    <path d="M22.2311214,19.8890895 C22.1651974,19.7701248 22.1132126,19.6719895 22.0572921,19.5756715 C21.9506986,19.3919822 21.9953038,19.2359722 22.1706091,19.1019098 C22.2140665,19.0686388 22.2567038,19.0345291 22.3008171,19 C22.54877,19.4223175 22.6081343,19.4017678 22.2311214,19.8890895" id="Fill-80" fill="#FFF9F7"></path>
                    <path d="M27,14.4045724 C27.2456839,14.1935574 27.5672548,14.0804988 28,14 C27.7036615,14.3120196 27.4505786,14.5784554 27.1553785,14.8890895 C27.1195219,14.7770007 27.0969456,14.7062006 27.0741795,14.6355389 C27.0504648,14.561275 27.0265604,14.4871495 27,14.4045724" id="Fill-81" fill="#FFF9F7"></path>
                    <path d="M16,23.8709261 C16.2181754,23.5300338 16.4952498,23.2726774 16.8536216,23 C16.9092024,23.2208778 16.9598058,23.4067362 16.9994175,23.5946009 C17.0052244,23.6226894 16.9664423,23.6794136 16.9353336,23.6885332 C16.6431197,23.7733459 16.3708152,23.94516 16,23.8709261" id="Fill-82" fill="#FFF9F7"></path>
                    <path d="M18.5003475,13.3383604 C18.4517813,13.5385 18.4085013,13.7168314 18.366708,13.8890895 C18.0483851,13.6483698 17.9168932,13.3579603 18.0538364,13.0026779 C18.0592877,13.0026779 18.0852227,12.9960526 18.0946386,13.0036441 C18.2295996,13.1128237 18.3620827,13.2236597 18.5003475,13.3383604" id="Fill-83" fill="#FFF9F7"></path>
                    <path d="M16.0024468,18 C16.3388296,18.2833572 16.3873188,18.5964591 16.5003475,18.8889485 C16.2388102,18.8941668 16.0130907,18.7539233 16.0043053,18.5698455 C15.9958577,18.394117 16.0024468,18.2178667 16.0024468,18" id="Fill-84" fill="#FFF9F7"></path>
                    <path d="M17,23.0614881 C16.8373799,23.1687558 16.6903057,23.3258423 16.5072489,23.3675824 C16.3612227,23.4010942 16.1617467,23.5270626 16,23.3595037 C16.1505677,23.0405433 16.2164192,23.0002992 16.5977293,23.0001496 C16.7212227,23 16.8448908,23 16.9683843,23 C16.9788646,23.0206457 16.989345,23.0409921 17,23.0614881" id="Fill-85" fill="#FFF9F7"></path>
                    <path d="M22.3078054,13.8890895 C22.1938519,13.7303321 22.1052214,13.6068005 22,13.4603481 C22.1482996,13.311121 22.3027117,13.1555002 22.4572693,13 C22.4716772,13.0055493 22.4859396,13.0110985 22.5003475,13.0166478 C22.4377676,13.2999018 22.3753334,13.5832765 22.3078054,13.8890895" id="Fill-86" fill="#FFF9F7"></path>
                    <path d="M22.4124505,19.013932 C22.4411833,19.2651881 22.4699161,19.5164443 22.5003475,19.7829135 C22.324412,19.8290332 22.1876834,19.9352045 22,19.8666656 C22.1221499,19.5729729 22.2413274,19.2864865 22.3605049,19 C22.377773,19.004644 22.3951825,19.009288 22.4124505,19.013932" id="Fill-87" fill="#FFF9F7"></path>
                    <path d="M24.5003475,15.8890895 C24.294572,15.7642525 24.1516762,15.6775642 24,15.585609 C24.0920537,15.3860408 24.1811334,15.1930204 24.2702131,15 C24.2900401,15.0032739 24.3097254,15.0064055 24.3295524,15.0096795 C24.3825187,15.2825557 24.4356266,15.5552895 24.5003475,15.8890895" id="Fill-88" fill="#FFF9F7"></path>
                    <path d="M20.0066691,11 C20.341768,11.1293655 20.539155,11.2647656 20.4939396,11.4828892 C20.4661677,11.6161521 20.4886606,11.7524322 20.4886606,11.8890895 C20.295864,11.8243438 20.2800272,11.804983 20.1689396,11.6739831 C20.0787383,11.5678757 19.98234,11.4678029 20.0027673,11.3433404 C20.0206698,11.2366044 20.0066691,11.1282341 20.0066691,11" id="Fill-89" fill="#FFF9F7"></path>
                    <path d="M26.3848928,22.3989734 C26.259442,22.2689348 26.1368381,22.1418487 26,22 C26.629721,22.0043646 26.8178022,22.0884468 27,22.4445447 C26.7895236,22.4288836 26.593661,22.4143778 26.3848928,22.3989734" id="Fill-90" fill="#FFF9F7"></path>
                    <path d="M21.0721098,12.8890895 C21.0431643,12.7594082 21.0016108,12.6566039 21.0012556,12.5536651 C21.0007229,12.3821902 20.9685811,12.1921702 21.2658487,12.116646 C21.3329736,12.0995791 21.3880232,12.0553665 21.4938604,12 C21.4938604,12.0991759 21.5101977,12.1646213 21.4910191,12.2236162 C21.4009864,12.5000456 21.2686899,12.7053855 21.0721098,12.8890895" id="Fill-91" fill="#FFF9F7"></path>
                    <path d="M16.1967752,22.8890895 C16.0288055,22.682846 15.9811782,22.4812806 16.0062658,22.2582515 C16.1532638,22.1774877 16.3032017,22.0950729 16.4764633,22 C16.5591742,22.3241558 16.4176642,22.6000184 16.1967752,22.8890895" id="Fill-92" fill="#FFF9F7"></path>
                    <path d="M25.0138403,13.8890895 C24.970259,13.3291272 25.0084292,13.250101 25.4424864,13 C25.5409098,13.3214565 25.5199967,13.4347334 25.331486,13.6038459 C25.226189,13.6982135 25.1208921,13.7931163 25.0138403,13.8890895" id="Fill-93" fill="#FFF9F7"></path>
                    <path d="M28,14 C27.9704284,14.3129622 27.8590998,14.5569998 27.6599261,14.7763815 C27.5177212,14.9328626 27.2533159,14.8846715 27,14.8726237 C27.3244184,14.5896409 27.6362253,14.3174451 28,14" id="Fill-94" fill="#FFF9F7"></path>
                    <path d="M25.0036847,17.8890895 C25.0036847,17.7091323 24.9921253,17.528597 25.0099542,17.3497962 C25.0162237,17.288076 25.0798983,17.2176831 25.1453362,17.1737418 C25.2417297,17.1092752 25.3630054,17.0650448 25.4989751,17 C25.5185673,17.3584688 25.3271517,17.6348368 25.0036847,17.8890895" id="Fill-95" fill="#FFF9F7"></path>
                    <path d="M16.3468396,14 C16.6011771,14.6699568 16.5504656,14.6353399 16.1120066,14.8890895 C15.8997987,14.5533865 15.9951752,14.2712995 16.3468396,14" id="Fill-96" fill="#FFF9F7"></path>
                    <path d="M17,14.8890895 C16.4775978,14.7154974 15.901829,14.5881 16.0141937,14 C16.7733933,14.1321619 16.9155253,14.2591451 17,14.8890895" id="Fill-97" fill="#FFF9F7"></path>
                    <path d="M23,20 C22.8458788,20.4593495 22.3481629,20.897063 22,20.8889792 C22.0981132,20.6393327 22.1914598,20.4013364 22.2899702,20.1507389 C22.517577,20.1024739 22.7471698,20.0537334 23,20" id="Fill-98" fill="#FFF9F7"></path>
                    <path d="M20,12.4445447 C19.6143491,12.4106338 19.2538803,12.3605349 19,12.0860378 C19.0909091,12.0547783 19.1697814,12.0131921 19.2534051,12.0032839 C19.3249921,11.9947713 19.4209693,12.0016093 19.4735508,12.0380322 C19.6567944,12.1650237 19.8256256,12.3077846 20,12.4445447" id="Fill-99" fill="#FFF9F7"></path>
                    <path d="M19.0313487,12 C19.2908519,12.2230367 19.4304214,12.5099592 19.5003475,12.8890895 C19.1823607,12.6834322 18.9046343,12.4933843 19.0313487,12" id="Fill-100" fill="#FFF9F7"></path>
                    <path d="M14,20.1453326 C14.324007,20.0679852 14.6421444,19.9536604 15,20.0198127 C14.9119546,20.1658568 14.8309528,20.3005362 14.7440814,20.4445447 C14.4770104,20.3632961 14.2385052,20.2910374 14,20.2184394 C14,20.1941835 14,20.169758 14,20.1453326" id="Fill-101" fill="#FFF9F7"></path>
                    <path d="M14,19.3568966 C14.1664659,19.2501327 14.3329317,19.1435721 14.5570281,19 C14.6536145,19.0455526 14.8002008,19.1144916 15,19.2086473 C14.6363454,19.3660478 14.3212851,19.4185147 14,19.4445447 C14,19.4152609 14,19.3861804 14,19.3568966" id="Fill-102" fill="#FFF9F7"></path>
                    <path d="M14,20.4419296 C14.0411311,20.3619846 14.082111,20.2991065 14.1072131,20.2303897 C14.171178,20.0555287 14.2920006,19.9889078 14.4781491,20.0014834 C14.648571,20.0130111 14.8205051,20.0040285 15,20.0040285 C14.7875397,20.3218623 14.4639347,20.4661826 14,20.4419296" id="Fill-103" fill="#FFF9F7"></path>
                    <path d="M14,19.0305517 C14.3684604,18.9443712 14.6910314,19.0400336 15,19.3236495 C14.8237668,19.3689522 14.6569507,19.4507077 14.4917788,19.4441757 C14.2983558,19.4365901 14.1213752,19.3160639 14,19.0305517" id="Fill-104" fill="#FFF9F7"></path>
                    <path d="M27,15.4445447 C27.1347482,15.3546121 27.284824,15.2744628 27.400539,15.1723635 C27.5654371,15.0266149 27.7505474,14.9627715 28,15.021974 C27.7200606,15.2989215 27.5662793,15.374179 27,15.4445447" id="Fill-105" fill="#FFF9F7"></path>
                    <path d="M17,18.4445447 C16.6472327,18.3266797 16.3310888,18.2210226 16,18.1102788 C16.3371654,17.880362 16.7648218,18.0185737 17,18.4445447" id="Fill-106" fill="#FFF9F7"></path>
                    <path d="M26,13.7324133 C26.327005,13.4803878 26.6381248,13.240079 26.9496319,13 C26.9664859,13.018609 26.9831461,13.037218 27,13.0560567 C26.9176676,13.2536337 26.8388222,13.4537379 26.7514529,13.6483282 C26.6437427,13.8890965 26.578458,13.9242468 26.3609066,13.8622168 C26.2468036,13.8295936 26.1356064,13.7818076 26,13.7324133" id="Fill-107" fill="#FFF9F7"></path>
                    <path d="M25.0132569,16 C25.0973396,16.0582528 25.1650505,16.0975001 25.2212404,16.1447822 C25.5872833,16.4538157 25.5866769,16.4595329 25.2582287,16.7871084 C25.2414526,16.8039507 25.2317507,16.824656 25.1868796,16.8890895 C25.0510537,16.5850005 24.9657582,16.3150597 25.0132569,16" id="Fill-108" fill="#FFF9F7"></path>
                    <path d="M17,17.7849322 C16.7583919,18.0109506 16.513566,17.798248 16.2513099,17.8014018 C16.170327,17.5457732 15.9700149,17.303986 16.0038025,17 C16.3553543,17.277004 16.6782134,17.5315813 17,17.7849322" id="Fill-109" fill="#FFF9F7"></path>
                    <path d="M17,22 C16.8218299,22.2376676 16.6852327,22.4235577 16.411236,22.3797589 C16.2829856,22.3592176 16.1617978,22.5296593 16,22.3872285 C16.2849117,22.1436191 16.6006421,22.0368385 17,22" id="Fill-110" fill="#FFF9F7"></path>
                    <path d="M16,23.8554796 C16.0318516,23.6717977 16.0583023,23.4859663 16.0970782,23.3050201 C16.1611969,23.0062438 16.1645206,23.0074163 16.3798652,23.0005771 C16.4187796,22.9994046 16.4578325,23.0003817 16.5003475,23.0003817 C16.4389985,23.2528466 16.4376136,23.2508925 16.2958046,23.4658394 C16.2049583,23.6034055 16.1190974,23.7476153 16.0310207,23.8890895 C16.0206343,23.8777559 16.0103864,23.8668132 16,23.8554796" id="Fill-111" fill="#FFF9F7"></path>
                    <path d="M27,20.0002103 C27.1711374,20.0003897 27.2965913,19.9987752 27.4220452,20.0023629 C27.4487525,20.0032598 27.4851821,20.0109733 27.50041,20.0371635 C27.6503456,20.2927867 27.8677521,20.4488514 28,20.7783811 C27.8218344,20.9229652 27.6412089,20.8861914 27.4687829,20.8815274 C27.4189996,20.8800923 27.3580883,20.7853771 27.3218929,20.7118294 C27.2184608,20.5014111 27.1252196,20.279871 27,20.0002103" id="Fill-112" fill="#FFF9F7"></path>
                    <path d="M27,19.4440654 C27.140778,19.2839611 27.2434506,19.1450526 27.3723207,19.0321342 C27.4186293,18.9915088 27.5317544,18.9956723 27.6077004,19.0105599 C27.7404075,19.03655 27.8680868,19.086764 28,19.1275155 C27.8008732,19.4083605 27.705213,19.4541587 27.3688807,19.4430561 C27.260254,19.4393973 27.1513628,19.4434346 27,19.4440654" id="Fill-113" fill="#FFF9F7"></path>
                    <path d="M26.605956,20 C26.7388804,20.3001347 26.8645194,20.5835952 27,20.8890895 C26.6740798,20.8656663 26.2365798,20.4873219 26,20.0258052 C26.2069274,20.0170712 26.3953221,20.0091311 26.605956,20" id="Fill-114" fill="#FFF9F7"></path>
                    <path d="M28,20.0157799 C28.3363663,19.9829937 28.6543905,19.9924621 29,20.1301078 C28.8167244,20.2899407 28.6266609,20.3347391 28.4533507,20.4445447 C28.2978047,20.2974306 28.1489024,20.1565346 28,20.0157799" id="Fill-115" fill="#FFF9F7"></path>
                    <path d="M27,19 C26.8284905,19.4405706 26.5504396,19.5380083 26,19.3612923 C26.3164953,19.2078853 26.6087021,19.0462118 27,19" id="Fill-116" fill="#FFF9F7"></path>
                    <path d="M28,19.3454139 C28.191783,19.1972743 28.3151952,19.1018 28.446605,19 C28.6219225,19.1387246 28.7864199,19.2686225 29,19.4376517 C28.6399561,19.4766358 28.3667869,19.3371757 28,19.3454139" id="Fill-117" fill="#FFF9F7"></path>
                    <path d="M16,15 C16.5122283,15.1994656 16.550971,15.2781676 16.4642533,15.8890895 C16.2888394,15.6131652 16.0784746,15.3865931 16,15" id="Fill-118" fill="#FFF9F7"></path>
                    <path d="M19,12.8890895 C18.6851833,12.8890895 18.4922564,12.8890895 18.2576511,12.8890895 C18.1412659,12.6428693 17.9383782,12.3875816 18.0180654,12 C18.3433673,12.2943481 18.631709,12.5556809 19,12.8890895" id="Fill-119" fill="#FFF9F7"></path>
                    <path d="M18.4550492,13.8890895 C18.306409,13.8531125 18.157941,13.8173342 18,13.7791707 C18,13.5126228 18,13.2756913 18,13 C18.1792984,13.2882137 18.3398229,13.5462146 18.5003475,13.8042155 C18.4851906,13.8326393 18.4700338,13.8608644 18.4550492,13.8890895" id="Fill-120" fill="#FFF9F7"></path>
                    <path d="M16.5003475,17.110712 C16.5003475,17.3563647 16.5003475,17.6048814 16.5003475,17.8890895 C16.3240755,17.5910015 16.1641894,17.3206734 16,17.0426342 C16.1618723,16.9774206 16.1618723,16.9774206 16.5003475,17.110712" id="Fill-121" fill="#FFF9F7"></path>
                    <path d="M26.0183967,13.4445447 C26.0129484,13.3680842 25.9850259,13.2935098 26.0106783,13.2272053 C26.0308824,13.1749742 26.1048886,13.1035917 26.1754896,13.0918397 C26.4188473,13.0519409 26.6710585,13.0343855 27,13 C26.7189582,13.2475174 26.3793471,13.3426941 26.0183967,13.4445447" id="Fill-122" fill="#FFF9F7"></path>
                    <path d="M16.5003475,13.4297089 C16.4264487,13.597495 16.3621446,13.7432039 16.2978405,13.8890895 C16.1002328,13.6116243 16.0432777,13.3182637 16,13 C16.1645369,13.1412935 16.3288698,13.2824104 16.5003475,13.4297089" id="Fill-123" fill="#FFF9F7"></path>
                    <path d="M16.5003475,13.8890895 C16.3438344,13.8186442 16.2131638,13.7740933 16.1072935,13.7065431 C16.0481061,13.6687471 15.9966298,13.591386 16.0001727,13.5341292 C16.0110098,13.3564078 16.0497734,13.1798122 16.1414721,13 C16.2563039,13.2840326 16.3707188,13.5679043 16.5003475,13.8890895" id="Fill-124" fill="#FFF9F7"></path>
                    <path d="M27,22.4445447 C26.6360033,22.3927119 26.3360451,22.3502865 26,22.3025118 C26.1115978,22.1123352 26.2432207,22.0125432 26.5064664,22 C26.6430955,22.1230338 26.8030872,22.2670958 27,22.4445447" id="Fill-125" fill="#FFF9F7"></path>
                    <path d="M22.1618415,19.8890895 C22.0971049,19.7124412 22.0533926,19.5928983 22,19.4470388 C22.1479262,19.3147676 22.2922223,19.1859365 22.5003475,19 C22.4280482,19.2124251 22.3872096,19.3434923 22.3388084,19.4707754 C22.2925248,19.5920383 22.2383759,19.7091731 22.1618415,19.8890895" id="Fill-126" fill="#FFF9F7"></path>
                    <path d="M20.5003475,11.0232746 C20.4578787,11.3044662 20.4151659,11.5856577 20.3692801,11.8890895 C20.2584708,11.8170244 20.1432683,11.7620274 20.06907,11.6868591 C20.0180587,11.6353102 19.9790069,11.5403154 20.012445,11.4911801 C20.1281357,11.3211894 20.2777526,11.1627497 20.4144337,11 C20.4432343,11.0075858 20.4717909,11.0155164 20.5003475,11.0232746" id="Fill-127" fill="#FFF9F7"></path>
                    <path d="M16,21.8882569 C16.0570593,21.693599 16.0942453,21.5349966 16.1476469,21.3947345 C16.1959278,21.2680193 16.2620093,21.160895 16.3430871,21 C16.5347476,21.022717 16.7545721,21.0487687 17,21.0777381 C16.9772007,21.171524 16.9717142,21.2590576 16.9428188,21.3030327 C16.6869056,21.6933906 16.3878322,21.9040963 16,21.8882569" id="Fill-128" fill="#FFF9F7"></path>
                    <path d="M16,21.5945587 C16.2217848,21.0529519 16.5501969,20.9005753 17,21.0597646 C16.8769685,21.2789053 16.7673885,21.4941854 16.6427165,21.6910714 C16.4916339,21.9299688 16.3499016,21.9479088 16.1476378,21.7707796 C16.0925197,21.7226368 16.0475722,21.6522392 16,21.5945587" id="Fill-129" fill="#FFF9F7"></path>
                    <path d="M17,20.4445447 C16.7500649,20.4405526 16.5575875,20.4374619 16.3539559,20.4342424 C16.2499351,20.3066225 16.139559,20.1711471 16,20 C16.3692607,20.0830624 16.6871595,20.1773285 17,20.4445447" id="Fill-130" fill="#FFF9F7"></path>
                    <path d="M17,20.4062034 C16.7554512,20.4902984 16.5414291,20.4106536 16.338477,20.4051292 C16.2264341,20.3029261 16.1165716,20.202718 16,20.0962182 C16.1761154,20.063992 16.342838,20.0336073 16.5265012,20 C16.6756122,20.127984 16.8290842,20.2594975 17,20.4062034" id="Fill-131" fill="#FFF9F7"></path>
                    <path d="M16,21.0592596 C15.8192407,21.2307584 15.7003883,21.3432899 15.5938309,21.4445447 C15.30522,21.4093052 15.1477567,21.2237105 15,21.0092195 C15.3060828,21.0693616 15.6113028,20.9251145 16,21.0592596" id="Fill-132" fill="#FFF9F7"></path>
                    <path d="M19,11.0255691 C19.2290714,10.9473981 19.3529088,11.0669764 19.5003475,11.1366337 C19.5003475,11.2247373 19.5003475,11.3140018 19.5003475,11.4445447 C19.4058035,11.361859 19.3351384,11.2978774 19.2618355,11.2367338 C19.1820076,11.1699144 19.0996808,11.1056749 19,11.0255691" id="Fill-133" fill="#FFF9F7"></path>
                    <path d="M25,13.8890895 C25.0719064,13.5024621 25.1334858,13.3866273 25.4522835,13 C25.5207476,13.431312 25.606997,13.3505728 25,13.8890895" id="Fill-134" fill="#FFF9F7"></path>
                    <path d="M16.1030582,15.8890895 C16.0651843,15.6769318 16.036328,15.5160999 16,15.3129702 C16.1190322,15.2387401 16.2872747,15.1332464 16.5003475,15 C16.4601548,15.3228341 16.3439567,15.5935065 16.1030582,15.8890895" id="Fill-135" fill="#FFF9F7"></path>
                    <path d="M16.9994866,15.8890895 C16.6626005,15.8394603 16.3444303,15.777278 16.1457867,15.5084049 C16.0355118,15.3593229 15.9508649,15.191265 16.0326406,15.0017012 C16.5610455,14.9715345 17.0174581,15.3455046 16.9994866,15.8890895" id="Fill-136" fill="#FFF9F7"></path>
                    <path d="M13,19.3958481 C12.7087485,19.6410918 12.4467201,19.8932654 12.0023843,19.889037 C11.5925292,19.885161 11.2722993,19.7492669 11,19.4754818 C11.5442318,18.8952595 12.3852173,18.8195018 13,19.3958481" id="Fill-137" fill="#FFF9F7"></path>
                    <path d="M16,18.214319 C15.6678389,18.5541435 15.3324808,18.8635422 14.800032,18.8866047 C14.5046355,18.8993864 14.2025256,18.8695163 14,18.6379187 C14.3694054,18.0252343 15.2503197,17.7921085 16,18.214319" id="Fill-138" fill="#FFF9F7"></path>
                    <path d="M16,22.2240859 C15.6641428,22.5622708 15.3254164,22.8699911 14.7942935,22.8875991 C14.4995616,22.8973813 14.1987726,22.8642615 14,22.6290693 C14.3766637,22.0167031 15.2584682,21.7915726 16,22.2240859" id="Fill-139" fill="#FFF9F7"></path>
                    <path d="M13,23.3773776 C13.3086312,23.2225111 13.5954664,23.0364485 14,23 C13.9686138,23.1526382 13.9398431,23.2938165 13.9091107,23.4445447 C13.5937228,23.4437489 13.3123365,23.4429531 13.0307323,23.4421573 C13.0204882,23.420511 13.0102441,23.3988647 13,23.3773776" id="Fill-140" fill="#FFF9F7"></path>
                    <path d="M13,23.3835376 C13.1370047,23.2688501 13.2740094,23.1543122 13.4582494,23 C13.5764495,23.0080745 13.7557645,23.0203357 14,23.0369332 C13.6736064,23.235057 13.3606447,23.3480996 13.0315648,23.4445447 C13.0210432,23.424209 13.0105216,23.4040228 13,23.3835376" id="Fill-141" fill="#FFF9F7"></path>
                    <path d="M14,23.8890895 C14.0156841,23.7822616 14.0379819,23.6945617 14.0393046,23.6065009 C14.0428949,23.3821984 14.1579743,23.2591298 14.382842,23.2008436 C14.5890023,23.1476101 14.7881708,23.0700156 15,23 C14.8805745,23.4449959 14.5578231,23.7355244 14,23.8890895" id="Fill-142" fill="#FFF9F7"></path>
                    <path d="M13,23.2433003 C13.3239374,22.9966946 13.6468418,22.9396903 14,23.0625801 C13.8460744,23.1842306 13.7089728,23.3352095 13.5535714,23.4039865 C13.3713105,23.4843295 13.1785714,23.4525228 13,23.2433003" id="Fill-143" fill="#FFF9F7"></path>
                    <path d="M15,23.0423055 C14.8861207,23.3784422 14.7647219,23.6914717 14.481156,23.8223749 C14.3237905,23.8949977 14.1546476,23.9356346 14,23.7975602 C14.0809929,23.2399124 14.5124117,22.8708792 15,23.0423055" id="Fill-144" fill="#FFF9F7"></path>
                    <path d="M16,24.0018922 C15.9230447,24.5487487 15.8828066,25.0756222 15.4182245,25.4938381 C14.9900243,25.8795816 14.5334898,26.0351637 14,25.9934134 C14.0320228,24.8376103 14.8342694,23.9535404 16,24.0018922" id="Fill-145" fill="#FFF9F7"></path>
                    <path d="M15,16.8890895 C14.6791887,16.861738 14.3752003,16.8194788 14.1668553,16.545718 C14.051095,16.3938067 13.9580397,16.2194721 14.0195668,16.0092849 C14.5137832,15.9359781 14.9729422,16.3030048 15,16.8890895" id="Fill-146" fill="#FFF9F7"></path>
                    <path d="M14,21.3749652 C14.3087467,21.2208394 14.5961706,21.0355063 15,21 C14.9682332,21.1526928 14.9386423,21.2937625 14.9073107,21.4445447 C14.5924717,21.4427933 14.3115753,21.4413603 14.0304613,21.4399273 C14.0204526,21.4182733 14.0102263,21.3966192 14,21.3749652" id="Fill-147" fill="#FFF9F7"></path>
                    <path d="M14,21.3832437 C14.1374302,21.2687352 14.2746369,21.1542267 14.4594413,21 C14.5772067,21.0082434 14.7562011,21.0209832 15,21.0382195 C14.6732961,21.2359115 14.3602235,21.3486214 14.0312849,21.4445447 C14.0207821,21.424161 14.0105028,21.4037773 14,21.3832437" id="Fill-148" fill="#FFF9F7"></path>
                    <path d="M15,21.8890895 C15.0160105,21.7818699 15.0386137,21.6938484 15.0403089,21.6056458 C15.0444528,21.3803398 15.1597288,21.2573632 15.3840648,21.1995878 C15.5897532,21.1467025 15.7884724,21.0695478 16,21 C15.8792616,21.4462653 15.556602,21.7369536 15,21.8890895" id="Fill-149" fill="#FFF9F7"></path>
                    <path d="M14,21.2408927 C14.3243841,20.9952152 14.6472931,20.9394924 15,21.0644026 C14.8458475,21.1855842 14.7085116,21.3363879 14.5528839,21.4045396 C14.3705561,21.4844987 14.1780499,21.4517693 14,21.2408927" id="Fill-150" fill="#FFF9F7"></path>
                    <path d="M18,20.9516168 C17.2501844,21.1913872 16.3082336,20.5351826 16,19.0901455 C16.1725018,18.946422 16.3555581,19.0112623 16.5338478,19.0374411 C16.8631901,19.0858113 17.1637065,19.2888273 17.4030528,19.6128554 C17.663054,19.9651428 17.8491744,20.4250928 18,20.9516168" id="Fill-151" fill="#FFF9F7"></path>
                    <path d="M15,20.2240558 C14.6640102,20.5622559 14.3254702,20.8699901 13.7943895,20.8875989 C13.4996812,20.8973815 13.1987568,20.8642603 13,20.6291972 C13.3767931,20.0168033 14.2583679,19.7915229 15,20.2240558" id="Fill-152" fill="#FFF9F7"></path>
                    <path d="M16.7954783,24 C17.0499677,24.1429365 17.0247762,24.3126478 16.9444208,24.4832653 C16.8568941,24.6692886 16.6360546,24.8132137 16.2346453,24.8890895 C15.733941,24.5951429 16.0875416,24.1303317 16.7954783,24" id="Fill-153" fill="#FFF9F7"></path>
                    <path d="M29.0011843,23.0131674 C29.2581894,22.9593447 29.4714461,23.078294 29.6706551,23.2288433 C29.8876578,23.3928803 30.0127487,23.605088 29.9989687,23.8763849 C29.4769313,23.9742676 28.9722863,23.48935 29.0011843,23.0131674" id="Fill-154" fill="#FFF9F7"></path>
                    <path d="M12,18.6804009 C12.0873981,18.5191 12.1506865,18.3813415 12.2240205,18.273186 C12.2900993,18.1757528 12.3671169,18.1104865 12.4675745,18 C12.622949,18.1531427 12.8010939,18.3286623 13,18.5249273 C12.9618261,18.6055778 12.9393906,18.6918225 12.9062395,18.7176959 C12.6131265,18.9451955 12.3204599,18.9594143 12,18.6804009" id="Fill-155" fill="#FFF9F7"></path>
                    <path d="M12,18.1644972 C12.3316287,17.9391745 12.6541144,17.9514145 13,18.1639707 C12.83713,18.2457028 12.6868123,18.3291459 12.5282814,18.3985064 C12.3361227,18.4828708 12.20936,18.4519415 12.0813575,18.3003225 C12.04649,18.2589958 12.0258794,18.208851 12,18.1644972" id="Fill-156" fill="#FFF9F7"></path>
                    <path d="M14,17.8890895 C13.6947313,17.7819648 13.4594784,17.6995496 13.2105724,17.6123131 C13.1487835,17.432416 13.0829687,17.2412188 13,17 C13.4111675,17.2412188 13.7535445,17.4732469 14,17.8890895" id="Fill-157" fill="#FFF9F7"></path>
                    <path d="M13,17.8890895 C12.6705252,17.8861766 12.4634512,17.6782444 12.2297964,17.5747264 C12.1539121,17.3844953 12.079314,17.1980734 12,17 C12.2222937,17.0403317 12.4327974,17.0784227 12.6647374,17.1203228 C12.7702036,17.3623129 12.8788853,17.6114731 13,17.8890895" id="Fill-158" fill="#FFF9F7"></path>
                    <path d="M12,17.3051058 C11.7486128,17.3671893 11.5833534,17.407859 11.4352232,17.4445447 C11.1546441,17.3429535 11.0668275,17.1796107 11,17 C11.2885404,17.1226731 11.6562123,17.1122152 12,17.3051058" id="Fill-159" fill="#FFF9F7"></path>
                    <path d="M30,20.122138 C29.9370033,20.1978569 29.8980832,20.2565549 29.8510986,20.2990275 C29.7071061,20.4293085 29.562763,20.5115494 29.3876812,20.371724 C29.2734923,20.2804159 29.1415381,20.2301488 29,20.1518847 C29.2497662,19.9582925 29.5809958,19.9512933 30,20.122138" id="Fill-160" fill="#FFF9F7"></path>
                    <path d="M30.3910924,20 C30.6398735,20.1515546 30.8205297,20.4479944 31,20.8890895 C30.6492291,20.7402946 30.3495849,20.6133475 30,20.4652426 C30.0905258,20.3576136 30.147582,20.2895405 30.2047701,20.2216974 C30.2647253,20.1504047 30.3245487,20.0791119 30.3910924,20" id="Fill-161" fill="#FFF9F7"></path>
                    <path d="M31,21.3342656 C30.7143048,21.4447087 30.4720064,21.4690159 30.2321189,21.4213802 C30.0610769,21.3876111 30.0454058,21.1822229 30,21 C30.32427,21.1084854 30.6362175,21.2125662 31,21.3342656" id="Fill-162" fill="#FFF9F7"></path>
                    <path d="M29,20 C29.18125,20.1002717 29.3549242,20.2239675 29.5454545,20.2952673 C29.817803,20.3971828 29.9825758,20.5701926 30,20.8890895 C29.4964015,20.7337505 29.3284091,20.6030685 29,20" id="Fill-163" fill="#FFF9F7"></path>
                    <path d="M30,18 C29.9880752,18.1071141 29.9888396,18.1816283 29.9703409,18.2517676 C29.913316,18.4671248 29.8229628,18.6493176 29.5476227,18.7044976 C29.3679865,18.7406256 29.1984406,18.8205026 29,18.8890895 C29.1210824,18.5382519 29.454059,18.2456992 30,18" id="Fill-164" fill="#FFF9F7"></path>
                    <path d="M30.1187914,18.1357842 C30.3875552,17.9647537 30.6629415,17.9686085 31,18.0734991 C30.6491446,18.3597672 30.3494757,18.6040386 30,18.8890895 C30.0274558,18.7148128 30.04484,18.6048501 30.0622241,18.4946846 C30.080436,18.3794469 30.0986479,18.2640064 30.1187914,18.1357842" id="Fill-165" fill="#FFF9F7"></path>
                    <path d="M31,18 C30.838882,18.3797404 30.6599534,18.6405703 30.4397863,18.8358706 C30.2827785,18.975213 30.1461844,18.8099165 30,18.6943193 C30.324291,18.4691993 30.6362515,18.2525467 31,18" id="Fill-166" fill="#FFF9F7"></path>
                    <path d="M29,19.2959029 C29.1516869,19.2297454 29.3105642,19.1888011 29.4535398,19.0913965 C29.6579093,18.9519702 29.8357301,18.9586506 30,19.2053943 C29.6378595,19.490281 29.4789823,19.5208815 29,19.2959029" id="Fill-167" fill="#FFF9F7"></path>
                    <path d="M28,21.3671523 C28.260475,21.0586616 28.6277022,21.0033178 29.0068499,21.0000723 C29.4199804,20.9963144 29.7667467,21.1387735 30,21.4845017 C29.4601904,22.0972127 28.4040566,21.9784967 28,21.3671523" id="Fill-168" fill="#FFF9F7"></path>
                    <path d="M28,16.7930901 C28.2521273,16.1191925 29.4126564,15.8817274 30,16.0541575 C29.8401144,16.3717328 29.6177333,16.6468235 29.2253128,16.7521006 C28.8324634,16.8576268 28.4264569,16.9777298 28,16.7930901" id="Fill-169" fill="#FFF9F7"></path>
                    <path d="M29,22.8401784 C28.4475647,22.917986 27.9336862,22.927427 27.4918644,22.6830169 C27.4204397,22.6433806 27.3687358,22.5884433 27.3089413,22.5400171 C27.2088203,22.4590354 27.0267821,22.2399371 27.0040274,22.1569207 C26.9927764,22.1163891 27.0083255,22.0723579 27.0116123,22.0322333 C28.0463223,21.8937912 28.7608221,22.2083583 29,22.8401784" id="Fill-170" fill="#FFF9F7"></path>
                    <path d="M28.0719643,24 C28.40875,24.1990083 28.7769643,24.359853 29,24.7169177 C28.7860714,24.7761671 28.5883929,24.8307114 28.3771429,24.8890895 C28.2416071,24.5937138 28.1207143,24.330054 28,24.0663942 C28.0239286,24.0442628 28.0478571,24.0221314 28.0719643,24" id="Fill-171" fill="#FFF9F7"></path>
                    <path d="M28.0734247,23 C28.2962557,23.0690922 28.5192694,23.1381843 28.8189954,23.2310477 C28.8584475,23.3745639 28.9183562,23.592282 29,23.8890895 C28.5762557,23.6658174 28.2794521,23.3910039 28,23.0846435 C28.0244749,23.056429 28.0489498,23.0282145 28.0734247,23" id="Fill-172" fill="#FFF9F7"></path>
                    <path d="M29,24.1722156 C29.0861948,24.1304656 29.1597758,24.1077629 29.226933,24.0598562 C29.397921,23.9374923 29.5287316,24.0052157 29.6461107,24.2403239 C29.7539126,24.4556152 29.8777155,24.6493581 30,24.8625331 C29.6239196,24.9706598 29.2985284,24.7501738 29,24.1722156" id="Fill-173" fill="#FFF9F7"></path>
                    <path d="M29.0457692,24 C29.575529,24.230787 29.8822756,24.5182584 30,24.8890895 C29.7429961,24.780722 29.4640224,24.6974815 29.2679533,24.5714895 C29.0383078,24.4240621 28.9323973,24.2325732 29.0457692,24" id="Fill-174" fill="#FFF9F7"></path>
                    <path d="M31,22.8758065 C30.700794,22.8808991 30.4281474,22.8867343 30.1555008,22.8890684 C30.1038825,22.8894927 30.0468623,22.8835514 30.0012462,22.8679555 C29.5306795,22.706585 29.1975614,22.4534424 29.0032426,22.110013 C28.9943895,22.094417 29.0062437,22.0730919 29.0083444,22.055268 C29.9125648,21.8666311 30.8131838,22.165925 31,22.8758065" id="Fill-175" fill="#FFF9F7"></path>
                    <path d="M26.0021507,23.022912 C26.514696,22.9501144 26.9410551,23.0614621 27.3393064,23.2067938 C27.7734544,23.3651218 28.024224,23.5800896 27.9981481,23.8656597 C26.957141,24.0014196 25.9471202,23.5244158 26.0021507,23.022912" id="Fill-176" fill="#FFF9F7"></path>
                    <path d="M27,23.8107702 C26.4958666,23.9145903 26.0162486,23.9456182 25.5607184,23.7104932 C25.4870296,23.6723793 25.4293044,23.6174094 25.3648803,23.5696329 C25.2574116,23.4898621 25.0497434,23.27009 25.0141106,23.1848437 C24.9967218,23.1432942 25.0037058,23.0970208 25,23.0551492 C25.945553,22.8683375 26.6684721,23.1649816 27,23.8107702" id="Fill-177" fill="#FFF9F7"></path>
                    <path d="M28,15.7823332 C28.0405618,15.4608249 28.2028089,15.2813686 28.3852878,15.1349738 C28.5841681,14.9754104 28.7912984,14.9464116 29,15.1070957 C28.9085641,15.7540349 28.3646631,16.0697995 28,15.7823332" id="Fill-178" fill="#FFF9F7"></path>
                    <path d="M23.3120066,13 C23.0001794,12.7055281 22.9770742,12.3303371 23.0123895,11.9484944 C23.0507105,11.5326742 23.242503,11.1986517 23.645812,11 C24.2627039,11.6071011 24.0243251,12.6573483 23.3120066,13" id="Fill-179" fill="#FFF9F7"></path>
                    <path d="M24.5003475,11.0288638 C24.4915332,11.2658841 24.482719,11.5031151 24.4725921,11.7727915 C24.3242507,11.8094506 24.1822855,11.8442136 24,11.8890895 C24.1567805,11.5612641 24.2353583,11.2403913 24.4465245,11 C24.4643404,11.0096915 24.482344,11.0191723 24.5003475,11.0288638" id="Fill-180" fill="#FFF9F7"></path>
                    <path d="M24.3350696,12 C24.510776,12.1899155 24.5734311,12.3536471 24.3879177,12.534448 C24.2745939,12.6448177 24.198863,12.7694394 24.1048805,12.8890895 C23.9975497,12.7881658 23.998367,12.7676165 24.0005463,12.6275828 C24.0021808,12.5140644 23.9948256,12.4041918 24.0964357,12.3001195 C24.1838803,12.2104648 24.2470802,12.1123584 24.3350696,12" id="Fill-181" fill="#FFF9F7"></path>
                    <path d="M24,12.4445447 C24.026836,12.3599044 24.0385511,12.2889236 24.0715171,12.2268459 C24.126415,12.1233017 24.1708238,12.0017074 24.3466878,12.0207332 C24.3863287,12.0251238 24.4286941,12.0103666 24.5003475,12 C24.4686075,12.0598824 24.4559387,12.1029344 24.4271957,12.1342781 C24.2926072,12.2813621 24.1591086,12.376491 24,12.4445447" id="Fill-182" fill="#FFF9F7"></path>
                    <path d="M24.5003475,11.0266542 C24.3689151,11.1623004 24.2374827,11.2979466 24.0954443,11.4445447 C24.0600906,11.3888612 24.0160025,11.3412267 24.0026929,11.2902934 C23.9935426,11.2553262 24.007684,11.2003024 24.0455332,11.1810375 C24.1759258,11.114402 24.3210837,11.0593782 24.4608346,11 C24.4739362,11.0088408 24.4872458,11.0176815 24.5003475,11.0266542" id="Fill-183" fill="#FFF9F7"></path>
                    <path d="M26.0348418,12.888977 C25.9381833,12.669653 26.0569469,12.4819006 26.2158019,12.3051982 C26.3887986,12.11271 26.6318179,11.9975723 26.963395,12.0000388 C27.1457281,12.4459879 26.6172642,12.8972646 26.0348418,12.888977" id="Fill-184" fill="#FFF9F7"></path>
                    <path d="M24.090965,24 C24.4310592,24.2357616 24.8123335,24.4395614 25,24.8102159 C24.7527146,24.8373662 24.5246876,24.8624546 24.2806802,24.8890895 C24.1798812,24.5890604 24.0899406,24.3211651 24,24.0534416 C24.0303217,24.0355705 24.0604384,24.0176993 24.090965,24" id="Fill-185" fill="#FFF9F7"></path>
                    <path d="M24.0927749,24 C24.3304712,24.0916607 24.5681675,24.1835152 24.8879581,24.3071506 C24.9124607,24.4340803 24.9495288,24.6265096 25,24.8890895 C24.5606283,24.6367803 24.2686911,24.3606355 24,24.0600736 C24.0307853,24.0401137 24.0617801,24.0199599 24.0927749,24" id="Fill-186" fill="#FFF9F7"></path>
                    <path d="M24,25.0739576 C24.0956981,25.0558764 24.1764554,25.0515299 24.2524472,25.0238864 C24.4464194,24.9533 24.5792117,25.0402291 24.6821226,25.2704174 C24.7765327,25.4813075 24.8898764,25.6767242 25,25.8884835 C24.5890005,25.9034353 24.2630088,25.6419525 24,25.0739576" id="Fill-187" fill="#FFF9F7"></path>
                    <path d="M25.1245704,24 C25.6914808,24.2526374 25.9723521,24.5399617 26,24.8890895 C25.7235213,24.7698889 25.4131934,24.6719297 25.2160409,24.5412045 C24.9847807,24.388221 24.9160486,24.2043923 25.1245704,24" id="Fill-188" fill="#FFF9F7"></path>
                    <path d="M26.0491506,24 C26.2201289,24.2475644 26.4135846,24.4651354 26.5003475,24.8402907 C26.3701283,24.8569537 26.2497991,24.8726645 26.1213781,24.8890895 C26.0779217,24.5877274 26.0389609,24.3185011 26,24.0492748 C26.0163336,24.0330879 26.032817,24.0164249 26.0491506,24" id="Fill-189" fill="#FFF9F7"></path>
                    <path d="M26.0502338,24 C26.1719897,24.0490487 26.2937455,24.0980975 26.4577712,24.1639704 C26.4669603,24.2251842 26.4810503,24.3181051 26.5003475,24.4445447 C26.2773582,24.3144814 26.1321701,24.1761355 26,24.0267892 C26.0166936,24.01773 26.0333871,24.0089297 26.0502338,24" id="Fill-190" fill="#FFF9F7"></path>
                    <path d="M26,25.0477056 C26.099425,25.0363292 26.1827119,25.0372579 26.2621035,25.0156661 C26.4644778,24.9604097 26.5982193,25.0521168 26.6956038,25.2782503 C26.7850121,25.4860424 26.8946392,25.6799043 27,25.8890895 C26.5759599,25.877481 26.2498609,25.607003 26,25.0477056" id="Fill-191" fill="#FFF9F7"></path>
                    <path d="M27.0823246,25 C27.3724043,25.2593049 27.5063621,25.5465967 27.5001405,25.8890895 C27.3586003,25.7664724 27.1972288,25.6641112 27.0988506,25.5319074 C26.9835575,25.3771286 26.9578936,25.1955997 27.0823246,25" id="Fill-192" fill="#FFF9F7"></path>
                    <path d="M23.1792616,24 C23.5547371,24.0532414 23.74221,24.2016466 23.8876692,24.3651438 C24.0458385,24.5433977 24.0477803,24.7212323 23.8239425,24.8890895 C23.0698141,24.7736353 22.7803079,24.2930373 23.1792616,24" id="Fill-193" fill="#FFF9F7"></path>
                    <path d="M28.0021507,25.0229104 C28.5146904,24.950115 28.9410448,25.0614594 29.339461,25.2068745 C29.773435,25.3651101 30.0243711,25.5801593 29.9981261,25.8656331 C28.9571305,26.0014768 27.9471208,25.5244871 28.0021507,25.0229104" id="Fill-194" fill="#FFF9F7"></path>
                    <path d="M20.9460696,22.5916513 C20.9421306,22.603157 20.9077217,22.6087202 20.8887215,22.6063179 C20.7174883,22.5835594 20.5464867,22.5585252 20.3754851,22.5342495 C20.0266466,22.4846867 19.6780397,22.4341124 19.3289695,22.3866989 C19.2842496,22.38063 19.2606152,22.3654577 19.2542432,22.3150099 C19.2394138,22.1974246 19.221688,22.0800922 19.2037305,21.9530242 C19.8310838,22.0319202 20.442565,22.1089195 21.0744367,22.1884476 C21.0307594,22.3282856 20.9906737,22.4609167 20.9460696,22.5916513 Z M20.5986213,23.2210486 C20.5903956,23.2334393 20.5621271,23.2352094 20.5437062,23.2335658 C20.2693622,23.2086579 19.9950182,23.1826121 19.720906,23.1556813 C19.7020217,23.1537848 19.6773446,23.1488538 19.666686,23.1349459 C19.556624,22.9910619 19.4535133,22.8417413 19.3721833,22.654237 C19.8630597,22.7240296 20.3374848,22.7914199 20.83091,22.8613388 C20.7493483,22.9887861 20.6756647,23.1063714 20.5986213,23.2210486 Z M20.2194288,23.7130102 C20.1207206,23.6191949 20.0234027,23.526391 19.9262005,23.43384 C19.9286335,23.428024 19.9311823,23.4222079 19.9337311,23.4163919 C20.0887447,23.4361159 20.24399,23.4559663 20.409894,23.4772075 C20.3424665,23.5606551 20.2851185,23.6315856 20.2194288,23.7130102 Z M20.5992006,24.3587177 C20.5965359,24.3661774 20.5939871,24.3736372 20.5913225,24.3810969 C20.3839425,24.3683268 20.1764467,24.3558097 19.9533105,24.3420282 C20.0442565,24.2202706 20.1254707,24.1114094 20.2152581,23.9914218 C20.3465215,24.1169725 20.4728031,24.2378451 20.5992006,24.3587177 Z M20.8211782,24.679106 C20.8457394,24.6808761 20.8764409,24.7014851 20.8910386,24.7236114 C20.9560331,24.8224842 21.0161617,24.9252764 21.0901929,25.0462755 C20.5890054,25.0276894 20.1078607,25.0099884 19.605283,24.9912759 C19.665875,24.8645873 19.7180096,24.7523123 19.774315,24.6423132 C19.7819614,24.6273938 19.8104617,24.617026 19.8286509,24.6180375 C20.1596478,24.6366236 20.4905289,24.656474 20.8211782,24.679106 Z M21.2588774,25.6905922 C20.6631524,25.6814888 20.0812142,25.6725119 19.4849099,25.6634085 C19.4976539,25.5340647 19.5100504,25.4095255 19.5232578,25.2762622 C20.0817934,25.2889057 20.6319875,25.3012964 21.1923768,25.31394 C21.2150843,25.4426516 21.236054,25.5613748 21.2588774,25.6905922 Z M21.1359555,26.4205059 C21.1319006,26.4336552 21.1054857,26.446931 21.0896136,26.4466781 C20.6352314,26.4408621 20.1808492,26.4335288 19.7265829,26.4248047 C19.7074668,26.4244254 19.6781556,26.4121612 19.6716677,26.3966096 C19.6186063,26.2663807 19.5697156,26.133876 19.5134102,25.9860726 C20.0985924,25.9997277 20.6614146,26.0127505 21.2470602,26.026532 C21.2082489,26.1662436 21.1739559,26.2940701 21.1359555,26.4205059 Z M20.5366391,27.4268083 C20.4052598,27.3554985 19.971268,26.8967895 19.8751086,26.7261012 C20.2463071,26.7392505 20.6082373,26.752147 20.983259,26.7652963 C20.8550078,27.0133633 20.6970978,27.2218559 20.5366391,27.4268083 Z M21.0375949,28.227526 C21.0338875,28.2348593 21.0300643,28.242319 21.0263569,28.2497787 C20.7303481,28.2473764 20.4343393,28.2451006 20.1383305,28.2426983 C20.1354342,28.2357443 20.1325378,28.2289168 20.1296414,28.2219628 C20.2580085,28.0564584 20.3862596,27.8912069 20.5265597,27.7102773 C20.6997625,27.8856437 20.8686787,28.0565849 21.0375949,28.227526 Z M21.1777791,28.5318569 C21.2293344,28.5329949 21.2617737,28.5505694 21.2851764,28.5988679 C21.3294329,28.6909131 21.3756589,28.7819469 21.4287204,28.8885323 C20.8817703,28.8555325 20.3524301,28.8234178 19.8206569,28.7913031 C19.8244801,28.7742343 19.824596,28.7717056 19.8255228,28.7695562 C19.8666512,28.6856028 19.8902856,28.5724428 19.9542374,28.5262938 C20.015177,28.4824205 20.1186352,28.5027767 20.2032092,28.5046732 C20.5280658,28.5121329 20.8529224,28.5247765 21.1777791,28.5318569 Z M21.5201298,29.2859199 C21.5219834,29.3611492 21.5290506,29.4359992 21.5344957,29.5208376 C20.9018131,29.4982056 20.2821062,29.4759529 19.6614725,29.4535737 C19.6728263,29.3367471 19.6834849,29.226748 19.6944911,29.1135879 C19.9603777,29.1277487 20.2084226,29.1408981 20.4564676,29.1543003 C20.785495,29.1720013 21.1144065,29.1913459 21.4434339,29.2060125 C21.4981174,29.2085412 21.5186236,29.2282652 21.5201298,29.2859199 Z M19.4153971,21.3809023 C19.4191044,21.3704082 19.4510803,21.3649714 19.4688061,21.3673737 C19.6283381,21.3884885 19.7875224,21.4117527 19.9468227,21.4343847 C20.2716793,21.4806602 20.5964201,21.5276943 20.9213926,21.5718204 C20.9631003,21.5773835 20.9851127,21.5916708 20.9910213,21.6385785 C21.004808,21.7481983 21.0213752,21.8573124 21.0380583,21.9757827 C20.4538029,21.9021971 19.8842611,21.830508 19.295835,21.7564166 C19.3365,21.6261878 19.3739211,21.50266 19.4153971,21.3809023 Z M20.1623125,20.864918 C20.2906795,20.9143543 20.7064821,21.1990877 20.7960378,21.2997306 C20.4264612,21.2625585 20.0658055,21.2262714 19.6924057,21.18872 C19.8294619,21.0640543 19.9946707,20.9634114 20.1623125,20.864918 Z M20.9891676,20.8197804 C20.991253,20.8228148 20.9932225,20.8258493 20.9953079,20.8288838 C20.9626369,20.8172517 20.940161,20.8094126 20.9430574,20.793861 C20.9438684,20.7895622 20.9441001,20.7847577 20.9449111,20.7803324 C20.960088,20.7885507 20.9750333,20.7995507 20.9891676,20.8197804 Z M22.3552106,20.0114765 C23.0545096,19.4518717 23.6078318,18.761406 24,17.9198494 C23.9015235,18.0182165 23.828535,18.1416178 23.7367781,18.2451687 C23.3553843,18.6759354 22.9719052,19.1056906 22.5150901,19.4449178 C22.2741123,19.6238244 22.0173782,19.7799726 21.7876383,19.9744308 C21.5002027,20.2178197 21.2256271,20.4791624 20.9504721,20.7394937 C21.0404912,20.1830498 20.9206974,19.4413776 21.0321497,18.8990945 C21.1024735,18.5570857 21.1839194,18.2232953 21.4254765,17.9590445 C21.5882523,17.7808965 21.7258877,17.5739212 21.8647975,17.3716239 C22.0816776,17.0555345 22.2853502,16.7284451 22.5030412,16.4129879 C23.0027226,15.6887637 23.3790187,14.8999309 23.5603313,14.0112139 C23.6136245,13.750124 23.6679604,13.4832181 23.6168684,13.2211167 C23.5261542,13.490172 23.4360192,13.7654227 23.3407867,14.038524 C23.0359729,14.9124481 22.5959567,15.6815569 21.9004808,16.2539317 C21.8279557,16.3136093 21.7645832,16.3892179 21.7060766,16.4657116 C21.5349592,16.6895029 21.3685918,16.9173402 21.1787059,17.1727404 C21.1787059,16.9643743 21.175462,16.7921688 21.1792852,16.6200897 C21.1928402,15.9956234 21.1453397,15.3797547 21.0349302,14.7642654 C20.8866362,13.9364903 20.6126397,13.1680137 20.2156056,12.4494792 C20.1277878,12.2906758 20.0132074,12.1493207 19.9107919,12 C19.9695302,12.2798024 20.0618664,12.5354555 20.1462087,12.7941431 C20.4002781,13.573999 20.5635173,14.3738317 20.5793894,15.2050205 C20.5803163,15.2500316 20.59167,15.2946634 20.5930603,15.3396746 C20.6010543,15.6110057 20.622024,15.8830955 20.6111336,16.1535417 C20.5978103,16.4865735 20.5588832,16.8184674 20.5282975,17.1504877 C20.5118461,17.3288886 20.5019985,17.5093125 20.4681689,17.6840467 C20.395528,18.0591817 20.3181371,18.4336844 20.2260326,18.8035091 C20.1472513,19.1201043 19.8052482,20.2438654 19.6744482,20.6460576 C19.4830562,20.2857157 19.0400278,19.886305 18.8310259,19.5889281 C18.4399004,19.0318521 18.0556103,18.4690864 17.6737531,17.9044243 C17.4976539,17.644093 17.3305914,17.3775664 17.2198343,17.0717183 C17.0714244,16.6619399 16.9453745,16.2483685 16.9220877,15.8039467 C16.9203499,15.7713263 16.8809593,15.7409817 16.8270868,15.663603 C16.8270868,16.0003015 16.8071598,16.2831383 16.8326479,16.5610442 C16.8585993,16.8440074 16.9098071,17.1286144 16.9859237,17.4004513 C17.0596073,17.6636906 17.1679314,17.9178265 17.2817007,18.1646291 C17.3963969,18.4130754 17.5365811,18.6474873 17.6718994,18.8998531 C17.0543938,18.8409341 16.5023461,18.6487517 16,18.2756397 C16.1836297,18.5400169 16.3965707,18.767222 16.6654695,18.9191978 C16.9580027,19.0845758 17.2515785,19.2484366 17.5497886,19.4007917 C18.2153739,19.7410303 19.0472108,20.4151859 19.0343509,21.1933981 L19.0370156,21.20149 C18.8029891,21.7293593 18.8369345,22.3591359 19.1575045,22.8701893 C19.3286219,23.1430378 19.5370445,23.3765646 19.7662052,23.5898618 C19.8692,23.6858265 19.9735851,23.7800212 20.0799398,23.8775032 C19.9994207,23.9795368 19.922609,24.0746165 19.8481145,24.1717192 C19.6138562,24.4770616 19.4104153,24.8022544 19.2994265,25.1873778 C19.1562301,25.6842704 19.2257429,26.1467725 19.4791172,26.5832288 C19.640387,26.8610082 19.849273,27.0912477 20.0740312,27.3060621 C20.177837,27.4053142 20.2841916,27.5012789 20.3917048,27.6006574 C20.2584719,27.7678055 20.1272085,27.9273675 20.0011585,28.091734 C19.7624978,28.4030189 19.5556972,28.7359243 19.4532816,29.132174 C19.3089266,29.6907672 19.4010311,30.1917058 19.7724613,30.6191851 C19.7869432,30.6360011 19.8164861,30.653955 19.8332851,30.6487711 C19.9033772,30.627277 19.9713839,30.5970589 20.0493541,30.5664614 C19.8511267,30.3431758 19.7169669,30.0942238 19.6712043,29.7854676 C20.2781672,29.8227662 20.8764409,29.859559 21.4929039,29.8974897 C21.4408851,30.0234198 21.4020738,30.1384763 21.3482014,30.2441766 C21.214505,30.5058987 21.0226496,30.7071844 20.773562,30.8543557 C20.837282,30.9060679 20.8915021,30.9532285 20.9491977,30.9943201 C20.9632161,31.0043085 20.9910213,30.999504 21.0094422,30.9922971 C21.051034,30.9759869 21.0907722,30.9538606 21.1312055,30.9342631 C21.2107977,30.8705395 21.2903899,30.8069423 21.3700979,30.7432186 C21.3826102,30.7265291 21.3941957,30.7084488 21.4079824,30.6928972 C21.8496206,30.1970161 21.9721949,29.6173081 21.7716504,28.9646466 C21.6493078,28.5672589 21.4018421,28.2588821 21.1226322,27.9813556 C20.9758443,27.8353222 20.8223368,27.6975072 20.6667439,27.5510946 C20.7441349,27.452854 20.8221051,27.3563835 20.8976424,27.2577636 C21.1316689,26.9521684 21.3349939,26.627102 21.4458669,26.2418522 C21.5887158,25.7448331 21.5188554,25.2823311 21.2652494,24.8462541 C21.0913514,24.5473599 20.8631177,24.3040975 20.6192435,24.0757545 C20.5315414,23.9936976 20.4430284,23.9129052 20.3524301,23.8294576 C20.4737299,23.6783668 20.5915542,23.535368 20.7057869,23.388576 C20.9314719,23.0987852 21.132364,22.7916727 21.2525054,22.4298135 C21.3755431,22.0589774 21.4001043,21.6862447 21.2690726,21.3112362 L21.2388345,21.2341104 C21.4310375,21.0299166 21.7414123,20.7220455 21.9782193,20.5861271 C22.2173435,20.4490707 22.4608701,20.3380601 22.7180675,20.2529688 C22.9109656,20.1889923 23.1015467,20.134372 23.3067254,20.141326 C23.4499218,20.1461306 23.5939292,20.1231193 23.7377049,20.1126251 C23.7372415,20.0953034 23.7367781,20.0779817 23.7364305,20.0607864 C23.2842496,19.9085577 22.8265076,19.8747994 22.3552106,20.0114765 L22.3552106,20.0114765 Z" id="Fill-195" fill="#FFFEFB"></path>
                </g>
            </g>
        </g>
    </g>
</svg>