<?xml version="1.0" encoding="UTF-8"?>
<svg width="13px" height="25px" viewBox="0 0 13 25" version="1.1" xmlns="http://www.w3.org/2000/svg" xmlns:xlink="http://www.w3.org/1999/xlink">
    <!-- Generator: Sketch 45.2 (43514) - http://www.bohemiancoding.com/sketch -->
    <title>Shape</title>
    <desc>Created with Sketch.</desc>
    <defs></defs>
    <g id="Page-1" stroke="none" stroke-width="1" fill="none" fill-rule="evenodd">
        <g id="Artboard-2" transform="translate(-1139.000000, -134.000000)" fill="#555555">
            <g id="Group-10" transform="translate(1002.000000, 134.000000)">
                <g id="Group-9" transform="translate(88.000000, 0.000000)">
                    <g id="noun_988402_cc" transform="translate(55.500000, 12.500000) rotate(-180.000000) translate(-55.500000, -12.500000) translate(49.000000, 0.000000)">
                        <g id="Group">
                            <path d="M12.3961795,0.0944741379 C12.3445707,0.106805003 12.2974947,0.13490073 12.2607629,0.175293103 L0.344095917,12.2442529 C0.291354484,12.298395 0.261576366,12.3729263 0.261576366,12.4507902 C0.261576366,12.5286541 0.291354484,12.6031855 0.344095917,12.6573276 L12.2607629,24.7262931 C12.3276858,24.8102094 12.4338607,24.8462729 12.5342734,24.8191942 C12.6346862,24.7921155 12.7117456,24.7066384 12.7327815,24.5990019 C12.7538174,24.4913655 12.7151446,24.3804263 12.6331587,24.3132184 L0.928080292,12.4508046 L12.6331587,0.588367816 C12.7112152,0.508386129 12.7367475,0.38669639 12.6980403,0.279135482 C12.659333,0.171574573 12.5638583,0.0989062647 12.4554243,0.0944741379 C12.4357355,0.0921757324 12.4158684,0.0921757324 12.3961795,0.0944741379 L12.3961795,0.0944741379 Z" id="Shape"></path>
                        </g>
                    </g>
                </g>
            </g>
        </g>
    </g>
</svg>