<?xml version="1.0" encoding="UTF-8"?>
<svg width="87px" height="96px" viewBox="0 0 87 96" version="1.1" xmlns="http://www.w3.org/2000/svg" xmlns:xlink="http://www.w3.org/1999/xlink">
    <!-- Generator: Sketch 45.2 (43514) - http://www.bohemiancoding.com/sketch -->
    <title>cycle-2</title>
    <desc>Created with Sketch.</desc>
    <defs></defs>
    <g id="Page-1" stroke="none" stroke-width="1" fill="none" fill-rule="evenodd">
        <g id="BetterDesk" transform="translate(-424.000000, -3328.000000)" fill-rule="nonzero" fill="#000000">
            <g id="cycle-2" transform="translate(424.000000, 3328.000000)">
                <g id="Group">
                    <path d="M74.6952191,40.43861 C71.8876494,41.4393822 68.5601594,42.6254826 61.8011952,42.180695 C61.8705179,41.8841699 61.9398406,41.5505792 61.974502,41.2540541 C64.22749,28.392278 55.7007968,16.1606178 55.3541833,15.6416988 L54.3836653,14.2702703 L53.3784861,15.5675676 C51.3334661,18.1992278 49.6697211,20.7567568 48.3179283,23.2030888 C38.8553785,7.07953668 18.9250996,1.03783784 18.0585657,0.778378378 L16.5334661,0.333590734 L16.4641434,2.0015444 C15.4243028,21.5722008 20.138247,34.5081081 26.2733068,42.9590734 C25.9266932,42.996139 25.5454183,43.0332046 25.1641434,43.0702703 C14.5577689,43.9598456 5.82310757,41.365251 5.75378486,41.3281853 L5.58047809,41.2911197 C2.01035857,40.8092664 0.693227092,41.6988417 0.311952191,42.1065637 L0.311952191,44.0339768 C0.242629482,44.1081081 0.311952191,44.1451737 0.311952191,44.1451737 C0.346613546,44.1451737 2.77290837,43.6633205 5.19920319,43.9598456 C6.13505976,44.219305 12.3741036,45.96139 20.72749,45.96139 C22.2525896,45.96139 23.8123506,45.9243243 25.3374502,45.7760618 C26.3772908,45.7019305 27.3478088,45.5907336 28.2143426,45.5166023 C31.0219124,48.8525097 34.0027888,51.372973 36.8103586,53.2633205 C36.6023904,53.411583 36.4290837,53.5969112 36.2557769,53.7081081 C30.4673307,58.7119691 27.3824701,65.0501931 27.3824701,72.0185328 C27.3824701,85.2138996 35.5278884,95.9258687 45.5103586,95.9258687 C55.4928287,95.9258687 63.638247,85.2138996 63.638247,72.0555985 C63.638247,63.5305019 59.6521912,57.7111969 55.4581673,53.9675676 C58.0577689,51.2617761 59.9294821,48.1853282 61.0733068,44.8123552 C68.0055777,45.3683398 71.7836653,44.2934363 75.4924303,42.9590734 C78.2653386,41.9953668 84.8856574,43.6262548 86.8960159,44.3305019 L86.8960159,41.772973 C86.0988048,41.5135135 78.785259,38.9930502 74.6952191,40.43861 Z M47.6940239,27.5397683 C51.2294821,35.2123552 51.5760956,43.9598456 48.6645418,53.5227799 C44.9904382,26.5760618 24.7135458,10.1559846 18.8557769,5.93050193 C18.8557769,5.26332046 18.8904382,4.596139 18.8904382,3.92895753 C24.0549801,5.74517375 40.8657371,12.8247104 47.6940239,27.5397683 Z M43.8812749,54.2640927 C38.7167331,31.1722008 23.847012,17.6432432 19.063745,13.788417 C18.959761,12.6393822 18.9250996,11.4532819 18.8904382,10.2301158 C23.3964143,13.8254826 41.7322709,29.8378378 45.6143426,54.9312741 C45.059761,54.7459459 44.5051793,54.5235521 43.8812749,54.2640927 Z M46.3075697,55.1907336 C42.3908367,28.8 22.6338645,12.3057915 18.8557769,9.37760618 C18.8211155,8.52509653 18.8211155,7.63552124 18.8211155,6.74594595 C25.0948207,11.3420849 45.0944223,27.984556 48.1792829,54.9312741 C48.1099602,55.1907336 48.0059761,55.4131274 47.9366534,55.6725869 C47.5207171,55.56139 46.9661355,55.4131274 46.3075697,55.1907336 Z M19.1330677,14.6779923 C24.2282869,18.8664093 38.0928287,31.9876448 43.1533865,53.9305019 C35.1119522,50.2980695 21.3513944,40.3644788 19.1330677,14.6779923 Z M61.0733068,72.0555985 C61.0733068,83.7312741 54.0370518,93.2200772 45.4756972,93.2200772 C36.9143426,93.2200772 29.912749,83.7312741 29.912749,72.0555985 C29.912749,63.7528958 34.8346614,58.1559846 39.2366534,54.7830116 C44.4011952,57.7482625 48.387251,58.5637066 48.5258964,58.5637066 L49.5310757,58.7490347 L49.5310757,58.7490347 L49.5310757,58.7490347 L50.2936255,58.2301158 C51.4374502,57.4517375 52.5119522,56.6362934 53.5171315,55.7837838 C57.3645418,59.1196911 61.0733068,64.3459459 61.0733068,72.0555985 Z M59.4788845,40.7351351 C58.5430279,45.9243243 55.7701195,50.3722008 51.1601594,54.0046332 C54.1756972,43.8857143 53.759761,34.619305 49.947012,26.3166023 C49.8776892,26.1683398 49.8083665,26.0571429 49.7737052,25.9459459 C50.9521912,23.6478764 52.4079681,21.23861 54.2450199,18.7181467 C56.3247012,22.2023166 61.1079681,31.4687259 59.4788845,40.7351351 Z" id="Shape"></path>
                    <path d="M38.3007968,58.6007722 L37.9195219,58.0818533 C37.7115538,58.2671815 32.6856574,62.5667954 31.7498008,74.5389961 L32.3737052,74.6131274 C33.2749004,62.9745174 38.2661355,58.6749035 38.3007968,58.6007722 Z" id="Shape"></path>
                    <path d="M38.5780876,61.2324324 C38.5087649,61.2694981 34.6960159,66.8664093 34.1414343,74.5760618 L34.7653386,74.6131274 C35.3199203,67.1258687 39.0286853,61.6772201 39.098008,61.6401544 L38.5780876,61.2324324 Z" id="Shape"></path>
                    <path d="M37.4342629,72.5745174 L38.0928287,72.5745174 C38.0928287,68.6455598 39.9992032,66.1621622 39.9992032,66.1250965 L39.5139442,65.6803089 C39.4446215,65.7915058 37.4342629,68.3490347 37.4342629,72.5745174 Z" id="Shape"></path>
                </g>
            </g>
        </g>
    </g>
</svg>