<?xml version="1.0" encoding="UTF-8"?>
<svg width="81px" height="78px" viewBox="0 0 81 78" version="1.1" xmlns="http://www.w3.org/2000/svg" xmlns:xlink="http://www.w3.org/1999/xlink">
    <!-- Generator: Sketch 45.2 (43514) - http://www.bohemiancoding.com/sketch -->
    <title>icon-ultimate</title>
    <desc>Created with Sketch.</desc>
    <defs></defs>
    <g id="Page-1" stroke="none" stroke-width="1" fill="none" fill-rule="evenodd">
        <g id="BetterDesk" transform="translate(-830.000000, -3314.000000)">
            <g id="icon-ultimate" transform="translate(830.000000, 3314.000000)">
                <g id="Layer_1">
                    <polygon id="Shape" fill="#D6D5D5" points="18.8100778 40.5414494 11.2025589 51.8254824 25.9967194 66.1419924 37.6573517 58.7800195"></polygon>
                    <polygon id="Shape" fill="#D0C8C8" points="63.0837846 39.86222 38.810115 16.3725084 17.3469311 19.6170214 4.00091389 32.5320071 21.380665 33.2391969 45.6543346 56.7289085 46.3849702 73.547352 59.7309875 60.6323663"></polygon>
                    <path d="M79.0882215,1.08524197 C64.7421321,-2.76739983 51.3756414,4.41308722 45.1024898,10.4836372 C43.2281554,12.2972856 15.2034728,39.4168651 15.2034728,39.4168651 L39.4771423,62.9065767 L69.3760031,33.9733487 C75.6489984,27.9027988 83.0692871,14.9678496 79.0882215,1.08524197 Z" id="Shape" fill="#F4F4F4"></path>
                    <path d="M23.7477682,54.4898104 C23.024478,53.7898801 23.024478,52.6548374 23.7477682,51.954907 L49.5016196,27.0328185 C50.2249098,26.3328881 51.397834,26.3328881 52.1211242,27.0328185 C52.8444144,27.7327489 52.8444144,28.8677915 52.1211242,29.5677219 L26.3672728,54.4898104 C25.6438263,55.1897408 24.4710584,55.189892 23.7477682,54.4898104 Z" id="Shape" fill="#D6D5D5"></path>
                    <ellipse id="Oval" fill="#FFFFFF" cx="62.8574829" cy="16.7589903" rx="6.84468846" ry="6.62362801"></ellipse>
                    <g id="Group" transform="translate(0.000000, 55.353180)">
                        <path d="M0.54246766,9.90095971 C-0.180822553,9.20102934 -0.180822553,8.06598668 0.54246766,7.36605631 L7.61189495,0.524947777 C8.33518517,-0.174982592 9.50810934,-0.174982592 10.2313995,0.524947777 C10.9546898,1.22487815 10.9546898,2.3599208 10.2313995,3.05985117 L3.16197226,9.90095971 C2.43868204,10.6008901 1.26575787,10.6010413 0.54246766,9.90095971 Z" id="Shape" fill="#D6D5D5"></path>
                        <path d="M12.5452093,21.5956086 C11.8219191,20.8956782 11.8219191,19.7606355 12.5452093,19.0607052 L19.6146366,12.2195966 C20.3379268,11.5196663 21.510851,11.5196663 22.2341412,12.2195966 C22.9574314,12.919527 22.9574314,14.0545697 22.2341412,14.7545 L15.1647139,21.5956086 C14.4412674,22.2956902 13.2684995,22.2956902 12.5452093,21.5956086 Z" id="Shape" fill="#D6D5D5"></path>
                        <path d="M3.74319877,18.1134175 C3.01990856,17.4134871 3.01990856,16.2784445 3.74319877,15.5785141 L13.6595263,5.98245057 C14.3828166,5.28252021 15.5557407,5.28252021 16.2790309,5.98245057 C17.0023212,6.68238094 17.0023212,7.8174236 16.2790309,8.51735397 L6.36270336,18.1134175 C5.63941315,18.8133478 4.46664527,18.8133478 3.74319877,18.1134175 Z" id="Shape" fill="#C3AFB1"></path>
                    </g>
                </g>
            </g>
        </g>
    </g>
</svg>