<?xml version="1.0" encoding="UTF-8"?>
<svg width="107px" height="72px" viewBox="0 0 107 72" version="1.1" xmlns="http://www.w3.org/2000/svg" xmlns:xlink="http://www.w3.org/1999/xlink">
    <!-- Generator: Sketch 45.2 (43514) - http://www.bohemiancoding.com/sketch -->
    <title>Page 1</title>
    <desc>Created with Sketch.</desc>
    <defs>
        <polygon id="path-1" points="0.898755062 72 106.951852 72 106.951852 0 0.898755062 0"></polygon>
    </defs>
    <g id="Page-1" stroke="none" stroke-width="1" fill="none" fill-rule="evenodd">
        <g id="BetterDesk" transform="translate(-493.000000, -3317.000000)">
            <g id="Page-1" transform="translate(493.000000, 3317.000000)">
                <path d="M51.7527956,68.0655896 L90.2505042,68.0655896 L90.2505042,65.7593634 C90.2505042,63.6234361 87.9171387,61.8856299 85.0490267,61.8856299 L56.9542731,61.8856299 C54.0861612,61.8856299 51.7527956,63.6234361 51.7527956,65.7593634 L51.7527956,68.0655896 Z M92.5717714,70.2439024 L49.4315284,70.2439024 L49.4315284,65.7593634 C49.4315284,62.4222608 52.8069639,59.7073171 56.9542731,59.7073171 L85.0490267,59.7073171 C89.1971425,59.7073171 92.5717714,62.4222608 92.5717714,65.7593634 L92.5717714,70.2439024 Z" id="Fill-1" fill="#D0C8C8"></path>
                <path d="M99.7618119,46.097561 C99.7618119,46.3202592 99.7488944,46.557909 99.7367843,46.7782465 C99.1894057,56.4014868 86.9355537,64.097561 71.9060564,64.097561 C59.0047152,64.097561 48.153218,58.437248 44.9819747,50.7521907 C44.841497,50.4177498 44.7131295,50.0809482 44.5984867,49.7347036 L44.5984867,49.7221129 C44.3207608,48.8140076 44.1407233,47.8846555 44.0761358,46.9285481 C44.0519155,46.655487 44.0389981,46.3729829 44.0389981,46.097561 C44.0389981,38.5982167 51.133121,32.1667225 61.2208718,29.4738834 C64.5075651,28.5815166 68.1236544,28.097561 71.9060564,28.097561 C72.1611768,28.097561 72.4025723,28.097561 72.6593074,28.1093648 C87.6993001,28.3564575 99.7618119,36.313789 99.7618119,46.097561" id="Fill-3" fill="#F4F4F4"></path>
                <path d="M62.0140993,28.9756098 C62.0140993,28.9756098 60.0516316,38.8681049 57.2259672,46.9185048 C56.744986,48.29141 56.2383096,49.615945 55.706741,50.8356782 C53.1597085,56.6618588 50.1573899,59.8655729 47.2947887,53.8378501 C46.7873093,52.7688705 46.1409155,51.7651906 45.39415,50.8356782 C45.1018676,50.480964 44.7991465,50.1238313 44.4691243,49.7933021 L44.4691243,49.7812096 C43.4943142,48.7501199 42.3661362,47.7956163 41.15204,46.9185048 C29.4462896,38.6157742 8.08879556,37.3807238 8.08879556,37.3807238 L8.08879556,33.8827582 C8.08879556,33.8827582 46.7873093,29.8390164 61.0007465,29.0368786 C61.3556609,29.0118873 61.6977277,28.9877023 62.0140993,28.9756098" id="Fill-5" fill="#F4F4F4"></path>
                <polygon id="Fill-7" fill="#D0C8C8" points="21.5701215 32.0878173 8.06140538 33.3658537 3.58518269 25.0760814 1.46754772 21.1554469 0 18.4390244 14.1086723 18.4390244 15.5883485 21.1554469 17.7302404 25.0760814"></polygon>
                <path d="M96.1667917,36 C92.6602859,32.303081 87.2460913,29.4825832 80.8370051,28.1480142 L80.8768332,28.1463867 L69.8948212,21.0731707 L51.9420642,21.0731707 L43.9382249,30.0969733 C27.4379774,31.5772056 8.08879556,33.5904519 8.08879556,33.5904519 L8.08879556,36 L96.1667917,36 Z" id="Fill-9" fill="#F4F4F4"></path>
                <polygon id="Fill-11" fill="#D0C8C8" points="4.49377531 46.5365854 8.43041309 36.8780488 17.9751012 38.1139715 9.35996443 46.5365854"></polygon>
                <mask id="mask-2" fill="white">
                    <use xlink:href="#path-1"></use>
                </mask>
                <g id="Clip-14"></g>
                <polygon id="Fill-13" fill="#D0C8C8" mask="url(#mask-2)" points="47.6340183 71.1219512 94.3692815 71.1219512 94.3692815 67.6097561 47.6340183 67.6097561"></polygon>
                <polygon id="Fill-15" fill="#D6D5D5" mask="url(#mask-2)" points="59.3178341 21.9512195 62.0140993 21.9512195 62.0140993 3.51219512 59.3178341 3.51219512"></polygon>
                <polygon id="Fill-16" fill="#D0C8C8" mask="url(#mask-2)" points="61.1153442 5.26943821 44.6035794 7.02439024 16.1775911 7.02439024 16.1775911 3.51219512 61.1153442 3.51219512"></polygon>
                <polygon id="Fill-17" fill="#D0C8C8" mask="url(#mask-2)" points="61.1153442 5.26943821 77.6276175 7.02439024 106.053097 7.02439024 106.053097 3.51219512 61.1153442 3.51219512"></polygon>
                <path d="M64.7103645,3.51334028 C64.7103645,5.45170859 62.8990009,7.02439024 60.6655795,7.02439024 C58.4321581,7.02439024 56.6215689,5.45170859 56.6215689,3.51334028 C56.6215689,1.57344509 58.4321581,0 60.6655795,0 C62.8990009,0 64.7103645,1.57344509 64.7103645,3.51334028" id="Fill-18" fill="#D6D5D5" mask="url(#mask-2)"></path>
                <path d="M97.9643018,44.6354539 C91.4630638,49.9108508 81.5513806,47.9272125 81.5513806,47.9272125 C81.5513806,47.9272125 73.1469815,39.0556765 77.7958748,30.7317073 C77.7958748,30.7317073 93.1883671,32.1479106 97.9643018,44.6354539" id="Fill-19" fill="#FFFFFF" mask="url(#mask-2)"></path>
            </g>
        </g>
    </g>
</svg>