<?xml version="1.0" encoding="UTF-8"?>
<svg width="107px" height="124px" viewBox="0 0 107 124" version="1.1" xmlns="http://www.w3.org/2000/svg" xmlns:xlink="http://www.w3.org/1999/xlink">
    <!-- Generator: Sketch 45.2 (43514) - http://www.bohemiancoding.com/sketch -->
    <title>cycle-5</title>
    <desc>Created with Sketch.</desc>
    <defs></defs>
    <g id="Page-1" stroke="none" stroke-width="1" fill="none" fill-rule="evenodd">
        <g id="BetterDesk" transform="translate(-1136.000000, -3285.000000)" fill-rule="nonzero" fill="#000000">
            <g id="cycle-5" transform="translate(1136.922652, 3284.941406)">
                <g id="Group">
                    <path d="M1.20965397,112.484077 C1.20965397,112.484077 2.18668218,111.862882 5.16429195,112.245156 C5.39691771,112.29294 11.4451876,113.487546 25.0770573,112.388508 C35.7778424,111.528392 41.9191625,111.623961 47.2695551,111.671745 C48.7118348,111.671745 50.1075894,111.719529 51.503344,111.719529 C54.3413783,111.719529 52.8060483,111.623961 54.8066298,111.95845 C56.2954347,112.245156 56.8072114,112.961919 63.4603082,113.86982 C66.0657168,114.204309 68.3454493,114.347662 70.392556,114.347662 C74.9985461,114.347662 78.3018319,113.630898 81.0933411,113.009703 C82.8147717,112.62743 84.3035766,112.29294 85.6993312,112.245156 C95.2835126,111.862882 105.844722,112.62743 105.937773,112.62743 L106.030823,109.569239 C105.984298,109.569239 95.376563,108.661339 85.6062809,109.043612 C84.3035766,109.091397 83.0473975,109.330318 81.6516429,109.617023 C81.5585926,109.617023 70.718232,111.002766 66.6240186,105.412011 C63.6464088,101.302567 63.692934,94.1349327 63.7394591,86.5372401 C63.7394591,83.2879125 63.7859843,79.8952322 63.5533585,76.6936888 C62.9950567,69.0959963 69.3690026,66.0378056 71.6022099,65.1776894 C73.6493167,66.0378056 75.6498982,66.4678636 77.5574295,66.4678636 C80.162838,66.4678636 82.5356208,65.703316 84.4431521,64.1264364 C90.6775225,59.0135238 92.4454783,53.231632 92.4454783,48.4054248 C95.0508869,45.7295079 104.448968,35.0736247 98.3541727,25.9468368 C93.1433556,18.1102231 86.1180576,18.30136 82.3495202,19.1614761 C81.2329165,13.6662897 78.5344577,8.12331906 72.6722885,5.01734413 C64.2047107,0.477842298 56.4350102,4.25279645 51.4102937,8.21888752 C47.6882815,2.7237011 38.8485025,-0.477842298 32.9398081,0.573410757 C20.6106426,2.67591687 17.074731,17.05897 16.5629543,19.7348869 C11.2590869,22.3152353 4.46641466,28.0971271 3.90811282,38.896363 C3.4428613,47.1152506 9.72375691,51.989242 16.0046525,54.8085116 C16.1907531,56.9588019 16.9351556,61.0682457 20.1919163,64.1264364 C22.7973248,66.5634321 26.2867113,67.8058221 30.6135505,67.8058221 C31.3114277,67.8058221 32.0558302,67.7580378 32.8002326,67.7102536 C35.1730154,67.5191167 37.2201221,66.8023532 38.8019773,65.6555317 C40.0116313,66.9457059 44.0593196,72.0108343 44.7106717,83.383481 C45.5946496,99.391198 42.8496656,108.087928 39.313754,108.470202 C39.1276534,108.470202 38.9415528,108.517986 38.7554522,108.517986 C35.03344,108.56577 30.6135505,108.756907 24.8444315,109.234749 C11.6778133,110.286002 5.81564408,109.139181 5.67606862,109.091397 C1.20965397,108.517986 0.465251527,109.282534 6.03961325e-14,109.760376 L0.186100611,112.866351 C0.0930503053,112.961919 1.20965397,112.484077 1.20965397,112.484077 Z M38.5693516,61.4027353 C37.3131724,63.1707518 35.2660657,64.1742206 32.5210817,64.4131418 C28.0546671,64.7954156 24.6118058,63.8875152 22.2855481,61.6894407 C20.424542,59.9214242 19.6336144,57.7711338 19.3079384,56.0509015 C23.774353,57.6277811 27.6359407,58.1534077 28.0081419,58.2011919 L28.4268683,54.9996485 C28.1942425,54.9518643 6.32742076,51.7981051 7.02529805,38.9441473 C7.67665019,26.5202475 18.1913347,21.7896088 21.8202966,21.1206296 C23.1230009,20.8817084 24.6118058,20.8817084 26.4728119,21.0728453 L26.7984879,17.8713019 C24.6118058,17.6323808 22.84385,17.6323808 21.2154696,17.9190862 C20.8897935,17.9668704 20.5175923,18.0624389 20.0988659,18.1580073 C21.3550451,13.8574266 24.984007,5.01734413 33.4050596,3.536033 C38.8019773,2.62813264 46.2925269,5.87746026 48.9444606,10.1302567 C46.8043036,12.1849786 45.5481245,13.8574266 45.5015993,13.9052109 L48.0139575,15.8643643 C48.1070079,15.7210116 58.9473684,1.19460574 71.1369584,7.74104523 C83.0008723,14.0963478 79.2788601,33.7356662 79.232335,33.9268031 L82.3029951,34.5957824 C82.3960454,34.1657243 83.4661239,28.5749694 82.7682466,22.2196669 C85.652806,21.5029034 91.3753998,21.1684138 95.702239,27.667069 C99.4242512,33.2578239 95.0043617,40.2821057 91.9802268,43.9614914 C91.2823495,40.4732426 90.0261704,38.0840311 89.9796452,38.0362469 L87.2811864,39.6609107 C87.3277115,39.8042634 94.0738587,51.989242 82.4425705,61.4983037 C79.6510614,63.7919468 75.3242222,63.6963783 70.8578075,61.2115984 C66.2983425,58.6312499 63.1811573,54.3784535 63.5068334,51.0813416 L60.3896482,50.746852 C60.2035475,52.4670843 60.6222739,54.282885 61.5062518,56.0986858 C58.7147427,57.0065861 56.2954347,57.0065861 54.248328,56.0509015 C50.6658912,54.4262377 49.363187,50.4601467 49.3166618,50.4123624 L46.3390521,51.4158313 C46.3855772,51.6547524 48.0604827,56.767665 52.9456237,59.0135238 C54.3879035,59.682503 55.9697587,60.0169926 57.6446641,60.0169926 C58.6216924,60.0169926 59.5987206,59.9214242 60.6222739,59.682503 C58.202966,61.8805776 56.4815353,64.5087102 55.457982,66.3722952 C52.0151207,62.167283 45.5015993,58.010055 43.3149171,56.7198808 C43.5475429,53.9961797 43.0822914,51.8458893 43.0822914,51.7025366 L40.0116313,52.3715158 C40.0581564,52.4670843 41.128235,57.9144865 38.5693516,61.4027353 Z M47.8278569,83.1445598 C47.0834545,68.9526436 41.8261122,64.1264364 40.9886595,63.4574572 C41.0351846,63.4096729 41.0817098,63.3618887 41.0817098,63.3141045 C41.8261122,62.3106356 42.3378889,61.2115984 42.663565,60.1125611 C44.2919453,61.1160299 51.7359698,65.703316 54.2948532,70.3383862 L55.8767083,73.20544 L57.0863623,70.1950336 C57.1328875,70.1472493 59.738296,63.839731 64.6699622,60.6381876 C65.6469904,61.5938722 66.7635941,62.5017726 67.973248,63.3141045 C64.0651352,65.512179 59.8313463,69.9083282 60.343123,76.9803942 C60.5757488,80.0385849 60.5292236,83.3356967 60.5292236,86.5372401 C60.4826985,94.7083434 60.4361733,102.401604 64.0651352,107.371164 C65.3213143,109.091397 66.9962198,110.286002 68.8107008,111.146118 C67.3218959,111.098334 65.6469904,110.954982 63.8325095,110.71606 C57.7377145,109.855944 58.0633905,109.425886 56.2023844,109.091397 C54.3413783,108.756907 54.7135795,108.517986 51.503344,108.517986 C50.1075894,108.517986 48.7118348,108.517986 47.3160803,108.470202 C46.1529514,108.470202 44.9432975,108.422417 43.6405932,108.422417 C47.0834545,104.074052 48.5257342,95.5206753 47.8278569,83.1445598 Z" id="Shape"></path>
                    <path d="M11.584763,36.2204462 C11.584763,28.288264 22.1924978,25.0867206 22.2855481,25.0389364 L22.0529224,24.2743887 C21.5876708,24.4177414 10.7938354,27.667069 10.7938354,36.2204462 C10.7938354,45.0605287 19.6801396,49.7911674 26.1006106,49.7911674 L26.1006106,48.9788355 C20.0058156,48.9788355 11.584763,44.5349022 11.584763,36.2204462 Z" id="Shape"></path>
                    <path d="M15.539401,36.6982885 C15.0741495,31.4898074 21.4946205,29.9129278 21.7737714,29.8651436 L21.5876708,29.1005959 C21.5411457,29.1005959 14.1901716,30.8686124 14.7484734,36.7938569 C15.1671998,41.5722799 18.7496365,44.295981 25.0305321,44.6782549 L25.1235824,43.8659229 C21.029369,43.6270018 16.0511777,42.1934749 15.539401,36.6982885 Z" id="Shape"></path>
                    <path d="M20.2384414,38.5140892 C19.5870893,38.1795996 19.0753126,37.6061888 18.889212,36.8894254 C18.5170108,35.6470354 20.7036929,34.309077 21.5411457,33.8790189 L21.2154696,33.1622555 C21.0758942,33.2100397 17.5399826,34.930272 18.1448095,37.1283465 C18.4239605,38.0362469 19.0287874,38.8007946 19.9127653,39.2308527 C20.424542,39.4697738 20.9828438,39.6131265 21.5411457,39.6131265 C22.0529224,39.6131265 22.6112242,39.4697738 23.1230009,39.2308527 L22.7973248,38.5140892 C21.9598721,38.896363 21.029369,38.896363 20.2384414,38.5140892 Z" id="Shape"></path>
                    <path d="M69.7412038,14.0485636 C76.5804013,17.7279493 74.3937191,28.8616748 74.3937191,28.9572433 L75.1846467,29.1005959 C75.277697,28.6227536 77.4643792,17.250107 70.0668799,13.2840159 C62.4367549,9.17457212 54.248328,15.0998166 51.2707182,20.9294926 L51.9685955,21.3117665 C54.8066298,15.8165801 62.5763303,10.1780409 69.7412038,14.0485636 Z" id="Shape"></path>
                    <path d="M70.4856063,26.2335422 L71.2300087,26.4246791 C71.2765339,26.3291106 73.13754,18.8747708 67.8336726,16.628912 C63.5068334,14.8131112 59.5056703,16.8200489 56.2489096,22.3630195 L56.9002617,22.7930776 C58.9938936,19.1614761 62.5298052,15.2909535 67.5079965,17.3934596 C72.2070369,19.3526131 70.5786566,25.9468368 70.4856063,26.2335422 Z" id="Shape"></path>
                    <path d="M65.9261413,19.5915342 C64.9956383,19.4003973 64.0651352,19.6393184 63.2742076,20.2127292 C62.3902297,20.8817084 61.8319279,21.9329615 61.7388776,23.1275672 L62.5298052,23.1753514 C62.6228555,22.2196669 63.0415819,21.3595507 63.7394591,20.8339242 C64.297761,20.3560819 65.0421634,20.2127292 65.7400407,20.3560819 C66.9962198,20.6427873 67.1357953,23.2231357 67.0892701,24.1788203 L67.8801977,24.2266045 C67.9267229,24.0354676 68.0662983,20.0215923 65.9261413,19.5915342 Z" id="Shape"></path>
                    <path d="M40.5699331,38.8007946 C39.5463798,37.7495415 38.2436755,37.0805623 36.8479209,36.8416412 L36.8479209,32.7799816 L35.2660657,32.7799816 L35.2660657,36.7460727 C33.5446351,36.8416412 31.9627799,37.5584046 30.7531259,38.8007946 C28.0546671,41.5722799 28.0546671,46.1117817 30.7531259,48.8832671 C32.0558302,50.2212255 33.823786,50.9857732 35.6382669,50.9857732 C37.4527479,50.9857732 39.2207037,50.2690097 40.523408,48.8832671 C43.268392,46.1117817 43.268392,41.6200641 40.5699331,38.8007946 Z M31.8697296,47.7364456 C29.7760977,45.5861552 29.7760977,42.0979064 31.8697296,39.9476161 C32.8932829,38.896363 34.2425124,38.3229523 35.6847921,38.3229523 C37.1270718,38.3229523 38.4763013,38.896363 39.4998546,39.9476161 C41.5469613,42.0979064 41.5469613,45.5861552 39.4533295,47.7364456 C37.4062227,49.8389517 33.9168363,49.8389517 31.8697296,47.7364456 Z" id="Shape"></path>
                    <path d="M60.6222739,30.6296913 L60.6222739,26.5680318 L59.0404187,26.5680318 L59.0404187,30.5341228 C57.3189881,30.6296913 55.7371329,31.3464547 54.5274789,32.5888447 C51.8290201,35.36033 51.8290201,39.8998319 54.5274789,42.6713172 C55.8301832,44.0092756 57.598139,44.7738233 59.4126199,44.7738233 C61.2271009,44.7738233 62.9950567,44.0570599 64.297761,42.6713172 C67.042745,39.8520476 67.042745,35.36033 64.3442861,32.5888447 C63.3207328,31.5375917 62.0180285,30.8686124 60.6222739,30.6296913 Z M63.2276825,41.5244957 C61.1805757,43.6270018 57.6911893,43.6270018 55.6440826,41.5244957 C53.5504507,39.3742053 53.5504507,35.8859566 55.6440826,33.7356662 C56.6676359,32.6844132 58.0168654,32.1110024 59.4591451,32.1110024 C60.9014248,32.1110024 62.2506543,32.6844132 63.2742076,33.7356662 C65.3213143,35.8381723 65.3213143,39.3742053 63.2276825,41.5244957 Z" id="Shape"></path>
                    <path d="M71.6022099,52.8971424 C72.9049142,54.2351008 74.67287,54.9996485 76.487351,54.9996485 C78.3018319,54.9996485 80.0697877,54.282885 81.372492,52.8971424 C84.117476,50.125657 84.117476,45.6339394 81.4190172,42.8624541 C80.3954638,41.8112011 79.0927595,41.1422218 77.6970049,40.9033007 L77.6970049,36.7938569 L76.1151498,36.7938569 L76.1151498,40.759948 C74.3937191,40.8555165 72.8118639,41.5722799 71.6022099,42.8146699 C68.9037511,45.5861552 68.9037511,50.125657 71.6022099,52.8971424 Z M76.5338761,42.3846118 C77.9761559,42.3846118 79.3253853,42.9580226 80.3489386,44.0092756 C82.3960454,46.159566 82.3960454,49.6478147 80.3024135,51.7981051 C78.2553068,53.9006112 74.7659203,53.9006112 72.7188136,51.7981051 C70.6251817,49.6478147 70.6251817,46.159566 72.7188136,44.0092756 C73.742367,42.9580226 75.0915964,42.3846118 76.5338761,42.3846118 Z" id="Shape"></path>
                    <path d="M39.9651061,31.2508863 C41.7795871,31.2508863 43.5475429,30.5341228 44.8502472,29.1483802 C47.5952312,26.3768948 47.5952312,21.837393 44.8967723,19.0659077 C43.873219,18.0146546 42.5705147,17.3456754 41.1747601,17.1067543 L41.1747601,13.0450947 L39.5929049,13.0450947 L39.5929049,17.0111858 C37.8714743,17.1067543 36.2896191,17.8235177 35.0799651,19.0659077 C32.3815063,21.837393 32.3815063,26.3768948 35.0799651,29.1483802 C36.3826694,30.4863386 38.1506252,31.2508863 39.9651061,31.2508863 Z M36.1965688,20.2127292 C37.2201221,19.1614761 38.5693516,18.5880654 40.0116313,18.5880654 C41.453911,18.5880654 42.8031404,19.1614761 43.8266938,20.2127292 C45.8738005,22.3630195 45.8738005,25.8512683 43.7801687,28.0015587 C41.7330619,30.1040648 38.2436755,30.1040648 36.1965688,28.0015587 C34.1029369,25.8512683 34.1029369,22.3630195 36.1965688,20.2127292 Z" id="Shape"></path>
                    <path d="M89.8865949,115.637836 C81.0002908,117.835911 71.5556848,117.071363 61.552777,116.259031 C58.807793,116.02011 55.9697587,115.828973 53.0851992,115.637836 C45.2224484,115.159994 41.6865368,115.446699 37.173597,115.828973 C34.0564117,116.067894 30.5205001,116.3546 24.7979064,116.450168 C16.4233789,116.545736 9.25850538,115.590052 4.93166618,115.016641 C2.93108462,114.729936 1.25617912,114.538799 0.0465251527,114.491015 L0.0465251527,115.303346 C1.39575458,115.398915 3.4428613,115.637836 4.83861588,115.828973 C9.16545507,116.402384 16.4233789,117.405853 24.7979064,117.2625 C30.5670253,117.166931 34.1029369,116.880226 37.2201221,116.641305 C41.6865368,116.259031 45.2224484,115.972326 53.038674,116.450168 C55.9232335,116.641305 58.7147427,116.832442 61.4597267,117.071363 C66.6240186,117.501421 71.6022099,117.883695 76.487351,117.883695 C81.1398662,117.883695 85.652806,117.501421 90.0726956,116.402384 C98.3076476,114.347662 103.983716,115.733405 106.030823,116.450168 L106.030823,115.590052 C103.65804,114.825504 98.0284967,113.630898 89.8865949,115.637836 Z" id="Shape"></path>
                    <path d="M90.2587962,118.074832 C81.372492,120.272906 71.927886,119.508359 61.9249782,118.696027 C59.1799942,118.457106 56.3419599,118.265969 53.4574004,118.074832 C45.5946496,117.59699 42.058738,117.883695 37.5457982,118.265969 C34.428613,118.50489 30.8927014,118.791595 25.1701076,118.887164 C16.7955801,118.982732 9.6307066,118.027048 5.3038674,117.453637 C3.07066008,117.166931 1.25617912,116.975795 0.0465251527,116.92801 L0.0465251527,117.692558 C1.34922943,117.788126 3.67548706,118.027048 5.2108171,118.218184 C9.5376563,118.791595 16.7955801,119.795064 25.1701076,119.651711 C30.9392265,119.556143 34.4751381,119.269438 37.5923233,119.030516 C42.058738,118.648243 45.5946496,118.361537 53.4108753,118.839379 C56.2954347,119.030516 59.0869439,119.221653 61.8319279,119.460574 C66.9962198,119.890633 71.9744112,120.272906 76.8595522,120.272906 C81.5120675,120.272906 86.0250073,119.890633 90.4448968,118.791595 C98.9589997,116.689089 104.309392,118.074832 105.984298,118.648243 L105.984298,117.788126 C103.937191,117.166931 98.6333236,115.972326 90.2587962,118.074832 Z" id="Shape"></path>
                    <path d="M91.0497238,120.894101 C82.1634196,123.092176 72.7188136,122.327628 62.7159058,121.515296 C59.9709218,121.276375 57.1328875,121.085238 54.248328,120.894101 C46.3855772,120.416259 42.8496656,120.702964 38.3367258,121.085238 C35.2195406,121.324159 31.683629,121.610865 25.9610352,121.706433 C17.5865077,121.802002 10.4216342,120.846317 6.094795,120.272906 C3.30328584,119.890633 1.16312882,119.699496 0.0465251527,119.74728 L0.0465251527,120.511828 C0.883977901,120.464043 4.04768828,120.798533 6.00174469,121.085238 C10.3285839,121.658649 17.5865077,122.614334 25.9610352,122.518765 C31.7301541,122.423197 35.2660657,122.136491 38.3832509,121.89757 C42.8496656,121.515296 46.3855772,121.228591 54.2018028,121.706433 C57.0863623,121.89757 59.8778715,122.088707 62.6228555,122.327628 C67.7871474,122.757686 72.7653388,123.13996 77.6504798,123.13996 C82.3029951,123.13996 86.8159349,122.757686 91.2358244,121.658649 C98.8194243,119.74728 103.844141,120.798533 105.984298,121.515296 L105.984298,120.65518 C103.611515,119.938417 98.5867985,119.030516 91.0497238,120.894101 Z" id="Shape"></path>
                </g>
            </g>
        </g>
    </g>
</svg>