<?xml version="1.0" encoding="UTF-8"?>
<svg width="101px" height="102px" viewBox="0 0 101 102" version="1.1" xmlns="http://www.w3.org/2000/svg" xmlns:xlink="http://www.w3.org/1999/xlink">
    <!-- Generator: Sketch 45.2 (43514) - http://www.bohemiancoding.com/sketch -->
    <title>cycle-3</title>
    <desc>Created with Sketch.</desc>
    <defs></defs>
    <g id="Page-1" stroke="none" stroke-width="1" fill="none" fill-rule="evenodd">
        <g id="BetterDesk" transform="translate(-658.000000, -3306.000000)" fill-rule="nonzero" fill="#000000">
            <g id="cycle-3" transform="translate(658.000000, 3306.000000)">
                <g id="Group">
                    <path d="M1.403861,91.6795276 C1.44285714,91.6795276 2.33976834,91.1173228 5.18648649,91.4787402 C5.42046332,91.5188976 11.1138996,92.6433071 24.0996139,91.6393701 C34.2776062,90.8362205 40.0490347,90.876378 45.157529,90.9566929 C46.5223938,90.9968504 47.8092664,90.9968504 49.1741313,90.9968504 C51.8258687,90.9968504 50.3830116,90.876378 52.2938224,91.2377953 C53.6976834,91.5188976 54.2046332,92.2015748 60.5220077,93.0448819 C63.0177606,93.4062992 65.2015444,93.5267717 67.1123552,93.5267717 C71.4799228,93.5267717 74.5996139,92.8440945 77.2123552,92.2015748 C78.8111969,91.8401575 80.2150579,91.5188976 81.5799228,91.4787402 C90.7050193,91.1173228 100.688031,91.8401575 100.805019,91.8401575 L100.922008,88.9488189 C100.844015,88.9889764 90.8220077,88.1055118 81.5019305,88.4669291 C79.9030888,88.5472441 78.3822394,88.8685039 76.6274131,89.2700787 C73.0397683,90.0732283 68.5162162,91.0370079 60.9119691,90.0330709 C56.388417,89.3905512 55.5694981,89.0291339 54.5945946,88.7480315 C54.711583,87.2220472 54.984556,83.8086614 55.2185328,79.1503937 C56.5444015,79.511811 57.8312741,79.7125984 59.0401544,79.7125984 C60.872973,79.7125984 62.5888031,79.2708661 64.1096525,78.4677165 C69.8030888,75.415748 71.7528958,67.9866142 71.830888,67.6653543 L72.0648649,66.7417323 L71.1289575,66.7015748 C62.1598456,66.4606299 57.6362934,70.0748031 55.4525097,73.2874016 C55.5694981,69.9543307 55.6084942,66.2598425 55.5694981,62.284252 C55.5694981,61.6417323 55.5694981,59.9952756 55.5694981,58.9913386 C55.8814672,58.9913386 56.1934363,59.0314961 56.4664093,59.0314961 C61.5359073,59.0314961 65.7474903,57.4251969 69.023166,54.3330709 C76.3544402,47.1850394 76.042471,34.615748 76.042471,34.0937008 L76.0034749,33.1299213 L75.1065637,33.3708661 C62.6667954,36.5433071 57.3633205,43.2496063 55.1405405,48.911811 C54.8675676,45.819685 54.43861,43.4905512 53.853668,40.3582677 C53.580695,38.711811 53.2297297,36.8244094 52.8397683,34.4952756 C52.8007722,34.3748031 52.8397683,34.2141732 52.8397683,34.0937008 C55.9984556,33.8527559 58.5722008,32.7283465 60.5220077,30.6 C65.0455598,25.9417323 64.6945946,18.2314961 64.6945946,17.9102362 L64.6555985,16.9464567 L63.7586873,17.2275591 C57.4023166,19.1149606 53.9706564,22.2472441 52.1378378,25.2590551 C51.9818533,14.8984252 53.307722,3.33307087 53.5416988,2.20866142 L53.3857143,0.963779528 L51.5918919,0.361417323 C50.7339768,0.722834646 50.227027,-2.69055118 49.4471042,12.0070866 C49.3301158,14.4968504 48.9401544,18.5125984 48.9011583,20.8015748 C45.1965251,16.5850394 39.269112,15.4606299 38.996139,15.4204724 L38.0602317,15.2598425 L38.0992278,16.223622 C38.1772201,17.9102362 38.4111969,19.396063 38.6841699,20.7614173 C29.7150579,18.392126 20.2,23.411811 19.7710425,23.6527559 L18.9521236,24.0944882 L19.5370656,24.8173228 C27.1023166,34.2141732 34.6675676,36.623622 40.4389961,36.623622 C45.0405405,36.623622 48.5111969,35.0976378 49.9540541,34.2944882 C50.3050193,36.623622 50.6949807,39.5952756 50.9679537,40.9204724 C51.5528958,44.0125984 51.9818533,46.3417323 52.2548263,49.5543307 C51.5528958,48.0685039 50.5779923,46.7433071 49.4081081,45.6188976 C44.1826255,40.719685 36.3833977,41.3220472 36.0714286,41.3622047 L35.1355212,41.4425197 L35.4084942,42.3661417 C39.8930502,56.7425197 48.5501931,58.2283465 51.903861,58.2283465 C52.176834,58.2283465 52.4108108,58.2283465 52.6057915,58.188189 C52.6057915,59.4330709 52.6447876,60.7582677 52.6447876,62.2440945 C52.6447876,64.8141732 52.6057915,67.303937 52.5667954,69.6330709 C51.4749035,67.1433071 49.8760618,65.0149606 47.8092664,63.3283465 C39.8540541,56.9031496 27.8432432,58.9913386 27.3362934,59.0716535 L26.4393822,59.2322835 L26.7903475,60.115748 C33.2637066,76.419685 43.9486486,78.8692913 49.7590734,78.8692913 C50.7339768,78.8692913 51.5918919,78.7889764 52.2548263,78.7086614 C52.0598456,83.0858268 51.7868726,86.3385827 51.6698842,88.0251969 C51.2019305,87.9448819 50.5,87.9047244 49.1741313,87.9047244 C47.8482625,87.9047244 46.56139,87.8645669 45.1965251,87.8645669 C40.0490347,87.784252 34.1606178,87.7440945 23.8656371,88.5472441 C11.3868726,89.5511811 5.81042471,88.4669291 5.65444015,88.4267717 C1.403861,87.9047244 0.740926641,88.5874016 0.272972973,89.0692913 L0.467953668,92.0409449 C0.38996139,92.1212598 1.403861,91.6795276 1.403861,91.6795276 Z M70.1540541,68.1472441 C69.4521236,70.1952756 67.4633205,74.9338583 63.4857143,77.0622047 C61.0289575,78.3874016 58.2212355,78.507874 55.0625483,77.4637795 C55.6864865,75.3354331 58.5722008,68.2677165 70.1540541,68.1472441 Z M74.5216216,35.0574803 C74.4436293,38.1094488 73.6637066,47.5866142 67.9702703,53.1685039 C64.7335907,56.3409449 60.3660232,57.7866142 55.0235521,57.4653543 C54.8285714,54.2929134 55.257529,40.4385827 74.5216216,35.0574803 Z M21.330888,24.576378 C24.0216216,23.3314961 32.6007722,19.9181102 40.0100386,22.8094488 C44.1826255,24.415748 47.3413127,27.8291339 49.369112,32.9291339 C46.7173745,34.4551181 34.3945946,40.0771654 21.330888,24.576378 Z M50.1100386,30.8409449 C47.8872587,26.1425197 44.6895753,22.9700787 40.5169884,21.3637795 C40.4779923,21.3637795 40.4389961,21.323622 40.3610039,21.323622 C40.0490347,20.0787402 39.8150579,18.7133858 39.6980695,17.1472441 C41.6868726,17.7094488 46.4444015,19.3559055 48.823166,23.2511811 C50.1490347,25.419685 50.5779923,27.9496063 50.1100386,30.8409449 Z M37.1633205,42.8480315 C39.3471042,42.8480315 44.6895753,43.2496063 48.3942085,46.7031496 C50.8899614,49.0724409 52.2158301,52.4055118 52.3718147,56.6622047 C50.0320463,56.8629921 41.7648649,56.4212598 37.1633205,42.8480315 Z M51.5528958,32.607874 C51.5528958,32.1661417 51.5528958,31.5637795 51.630888,30.8409449 C51.630888,30.8007874 51.630888,30.7606299 51.630888,30.7204724 C52.0988417,27.507874 54.2436293,22.0062992 63.1737452,19.0346457 C63.0957529,21.2031496 62.5888031,26.3433071 59.4301158,29.596063 C57.519305,31.6440945 54.7895753,32.688189 51.5528958,32.607874 Z M44.1826255,76.580315 C37.5532819,74.6125984 32.1718147,69.0307087 28.5451737,60.4370079 C31.5088803,60.115748 40.7119691,59.5133858 46.9123552,64.5330709 C50.4220077,67.384252 52.4108108,71.6007874 52.8787645,77.1023622 C51.5528958,77.3433071 48.1992278,77.7850394 44.1826255,76.580315 Z" id="Shape"></path>
                    <path d="M23.8266409,96.2976378 C29.2861004,96.2173228 32.6397683,95.9362205 35.642471,95.6952756 C39.8930502,95.3338583 43.2467181,95.0929134 50.6559846,95.5346457 C53.3857143,95.6952756 56.0764479,95.9362205 58.6501931,96.1370079 C63.5247104,96.5385827 68.2822394,96.9401575 72.8837838,96.9401575 C77.2903475,96.9401575 81.5799228,96.5787402 85.7525097,95.5346457 C93.5517375,93.6070866 98.9332046,94.9322835 100.883012,95.5748031 L100.883012,94.7716535 C98.6602317,94.0086614 93.3177606,92.8440945 85.5965251,94.7716535 C77.1733591,96.8598425 68.2042471,96.1370079 58.6891892,95.3740157 C56.0764479,95.1732283 53.3857143,94.9322835 50.6559846,94.7716535 C43.207722,94.3299213 39.8150579,94.6110236 35.5644788,94.9322835 C32.6007722,95.1732283 29.2471042,95.4543307 23.8266409,95.5346457 C15.8714286,95.6149606 9.04710425,94.7314961 4.99150579,94.1692913 C3.08069498,93.9283465 1.52084942,93.7275591 0.350965251,93.6874016 L0.350965251,94.4503937 C1.63783784,94.5307087 3.54864865,94.7716535 4.87451737,94.9322835 C8.96911197,95.4944882 15.8714286,96.4181102 23.8266409,96.2976378 Z" id="Shape"></path>
                    <path d="M85.9864865,97.0606299 C77.5633205,99.1488189 68.5942085,98.4259843 59.0791506,97.6629921 C56.4664093,97.4622047 53.7756757,97.2212598 51.0459459,97.0606299 C43.5976834,96.6188976 40.2050193,96.9 35.9544402,97.2212598 C32.9907336,97.4622047 29.6370656,97.7433071 24.2166023,97.823622 C16.26139,97.9440945 9.43706564,97.0204724 5.38146718,96.4582677 C3.27567568,96.1771654 1.52084942,95.976378 0.38996139,95.976378 L0.38996139,96.7393701 C1.63783784,96.819685 3.82162162,97.0606299 5.3034749,97.2614173 C9.3980695,97.823622 16.3003861,98.7472441 24.2555985,98.6267717 C29.7150579,98.5464567 33.0687259,98.2653543 36.0714286,98.0244094 C40.3220077,97.6629921 43.6756757,97.3818898 51.0849421,97.8637795 C53.8146718,98.0244094 56.5054054,98.2653543 59.0791506,98.4661417 C63.953668,98.8677165 68.7111969,99.2692913 73.3127413,99.2692913 C77.719305,99.2692913 82.0088803,98.907874 86.1814672,97.8637795 C94.253668,95.8559055 99.323166,97.1811024 100.922008,97.7433071 L100.922008,96.9401575 C98.9332046,96.2173228 93.9027027,95.0929134 85.9864865,97.0606299 Z" id="Shape"></path>
                    <path d="M86.7274131,99.7511811 C78.3042471,101.83937 69.3351351,101.116535 59.8200772,100.353543 C57.2073359,100.152756 54.5166023,99.911811 51.7868726,99.7511811 C44.33861,99.3094488 40.9459459,99.5905512 36.6953668,99.911811 C33.7316602,100.152756 30.3779923,100.433858 24.957529,100.514173 C17.0023166,100.634646 10.1779923,99.7110236 6.12239382,99.1488189 C3.47065637,98.7874016 1.403861,98.5866142 0.38996139,98.6669291 L0.38996139,99.3897638 C1.16988417,99.3496063 4.21158301,99.6708661 6.04440154,99.911811 C10.1389961,100.474016 17.0413127,101.397638 24.9965251,101.277165 C30.4559846,101.19685 33.8096525,100.915748 36.8123552,100.674803 C41.0629344,100.313386 44.4166023,100.032283 51.8258687,100.514173 C54.5555985,100.674803 57.246332,100.915748 59.8200772,101.116535 C64.6945946,101.51811 69.4521236,101.919685 74.053668,101.919685 C78.4602317,101.919685 82.7498069,101.558268 86.9223938,100.514173 C94.1366795,98.7070866 98.8942085,99.7110236 100.922008,100.393701 L100.922008,99.5905512 C98.6212355,98.8275591 93.8637066,97.984252 86.7274131,99.7511811 Z" id="Shape"></path>
                </g>
            </g>
        </g>
    </g>
</svg>