<?xml version="1.0" encoding="UTF-8"?>
<svg width="106px" height="123px" viewBox="0 0 106 123" version="1.1" xmlns="http://www.w3.org/2000/svg" xmlns:xlink="http://www.w3.org/1999/xlink">
    <!-- Generator: Sketch 45.2 (43514) - http://www.bohemiancoding.com/sketch -->
    <title>cycle-4</title>
    <desc>Created with Sketch.</desc>
    <defs></defs>
    <g id="Page-1" stroke="none" stroke-width="1" fill="none" fill-rule="evenodd">
        <g id="BetterDesk" transform="translate(-896.000000, -3285.000000)" fill-rule="nonzero" fill="#000000">
            <g id="cycle-4" transform="translate(896.000000, 3284.941406)">
                <g id="Group">
                    <path d="M26.0060595,49.3723926 C19.6023118,49.3723926 10.7543855,44.6463184 10.7543855,35.8477759 C10.7543855,27.3508977 21.508771,24.0828677 21.9976067,23.9320355 L22.193141,24.6861963 C22.0953739,24.7364737 11.5365226,27.903949 11.5365226,35.8477759 C11.5365226,44.1435445 19.9444968,48.5679544 26.0060595,48.5679544 C26.0060595,48.5679544 26.0060595,49.3723926 26.0060595,49.3723926 Z" id="Shape"></path>
                    <path d="M24.930621,44.2440993 C18.6735239,43.8418802 15.1050233,41.1269014 14.6650712,36.3505497 C14.1273519,30.4178182 21.4110039,28.7083871 21.4598875,28.7083871 L21.6065382,29.5128253 C21.3132368,29.5631027 14.909489,31.1217016 15.3983247,36.3002724 C15.8871604,41.73023 20.8732846,43.1882742 24.930621,43.4396611 L24.930621,44.2440993 Z" id="Shape"></path>
                    <path d="M21.4110039,39.2163607 C20.8732846,39.2163607 20.2866818,39.1158059 19.7978461,38.864419 C18.9179418,38.4621999 18.331339,37.7080392 18.0380375,36.7527688 C17.4514347,34.5908412 20.9710518,32.8814101 21.1177025,32.7808554 L21.4598875,33.4847388 C20.5799832,33.8869579 18.4779897,35.2444473 18.8201747,36.5013819 C19.0157089,37.2052653 19.5045446,37.8085939 20.1400311,38.1102582 C20.9221682,38.5124773 21.850956,38.5124773 22.6819767,38.1102582 L22.9752782,38.864419 C22.4864424,39.1158059 21.9487232,39.2163607 21.4110039,39.2163607 Z" id="Shape"></path>
                    <path d="M74.8407465,28.7586645 L74.0586094,28.6078324 C74.0586094,28.5072776 76.2094865,17.3959754 69.4146702,13.7257263 C62.2776689,9.85436756 54.5540647,15.4854347 51.7188176,20.9656698 L51.0344476,20.6137281 C54.0163454,14.7815513 62.1799017,8.89909724 69.7568552,13.0218429 C77.0893907,16.9434789 74.9385136,28.2558907 74.8407465,28.7586645 Z" id="Shape"></path>
                    <path d="M70.8811773,26.0436857 L70.1479237,25.8425762 C70.1968073,25.5409119 71.8588487,19.0048517 67.1660259,17.0440337 C62.2287853,14.9826609 58.7091682,18.8037422 56.6071747,22.4237139 L55.9228047,22.0214949 C59.1491204,16.4909825 63.1575731,14.5301644 67.4593273,16.3401503 C72.8365201,18.5523553 70.9300608,25.9934083 70.8811773,26.0436857 Z" id="Shape"></path>
                    <path d="M67.5570945,23.8817581 L66.7749574,23.8314807 C66.8238409,22.8762104 66.6771902,20.2617864 65.4062174,20.0103994 C64.7218474,19.8595673 63.9885938,20.0103994 63.401991,20.4628959 C62.717621,21.0159472 62.2776689,21.8203853 62.1799017,22.7756556 L61.3977646,22.7253783 C61.4955317,21.5689984 62.033251,20.4628959 62.9131553,19.8092899 C63.6952924,19.2059613 64.6240803,19.0048517 65.5528681,19.2059613 C67.7526288,19.7087351 67.6059781,23.730926 67.5570945,23.8817581 Z" id="Shape"></path>
                    <path d="M85.3018306,108.448321 C83.9330906,108.498598 82.6621178,108.699708 81.2933778,109.001372 L81.2933778,108.951094 C81.1956107,109.001372 70.3923416,110.358861 66.3350052,104.778071 C63.3531074,100.705603 63.401991,93.5662145 63.4508746,85.9743293 C63.4508746,82.7062992 63.4997581,79.3377144 63.2553403,76.1702391 C62.6687374,68.6286313 69.0236016,65.5617107 71.2722458,64.7069952 C73.3253558,65.5617107 75.3295822,65.9639298 77.1871579,65.9639298 C79.7291035,65.9639298 82.1243985,65.1594917 84.0797413,63.6511701 C90.3368384,58.5228768 92.0477633,52.6907 92.0477633,47.864071 C94.6385926,45.1490922 103.926471,34.5908412 97.9137918,25.4906345 C92.6832497,17.6473623 85.6928992,17.8987493 81.9288642,18.7534648 C80.8045421,13.3235072 78.1159457,7.79299476 72.2988008,4.67579685 C63.8419431,0.150832157 56.118339,3.92163607 51.1322148,7.89354953 C47.4170634,2.36303712 38.6180207,-0.754160783 32.7519923,0.251386928 C20.5310996,2.36303712 17.0114825,16.6418146 16.4737633,19.306516 C11.1943377,21.8706627 4.44840492,27.6022847 3.86180207,38.4119225 C3.42184994,46.6071364 9.6300634,51.4840428 15.8382769,54.249299 C15.9849276,56.4112266 16.7670647,60.4836948 20.0422639,63.6008927 C22.6330932,66.0644846 26.1527102,67.2711418 30.4544644,67.2711418 C31.1388344,67.2711418 31.872088,67.2208645 32.6542251,67.1705871 C35.0006365,66.9694775 36.9559793,66.2655941 38.5691372,65.1594917 C40.2311786,67.1203097 43.8974463,72.5502673 44.4840492,82.8571314 C45.3639535,98.7447852 42.6264735,107.342218 39.15574,107.844992 C35.3428215,107.895269 30.7477659,108.096379 24.7350867,108.548875 C11.6342898,109.554423 5.76826132,108.448321 5.62161061,108.398043 C1.22208926,107.794715 0.488835705,108.548875 -2.13162821e-14,109.051649 L0.195534282,112.168847 C0.0977671411,112.219125 1.17320569,111.766628 1.17320569,111.766628 C1.17320569,111.766628 2.1508771,111.163299 5.13277491,111.565519 C5.37719276,111.615796 11.3898719,112.772176 24.9795045,111.716351 C35.6361229,110.861635 41.6976857,110.96219 47.0748784,111.012467 C48.492502,111.062745 49.8612419,111.062745 51.2788655,111.062745 C54.065229,111.062745 52.5498383,110.96219 54.5540647,111.314132 C56.0205718,111.615796 56.5094075,112.319679 63.1575731,113.224672 C65.7484024,113.576614 68.0459302,113.727446 70.0501566,113.727446 C74.6452122,113.727446 77.9204114,113.023563 80.8534257,112.420234 C82.5643506,112.068292 84.0308578,111.716351 85.4484813,111.666073 C94.9807776,111.314132 105.490745,112.068292 105.588512,112.068292 L105.68628,109.001372 C105.588512,109.001372 95.0785447,108.046102 85.3018306,108.448321 Z M38.3736029,60.9361913 C37.10263,62.6958998 35.0984036,63.7014475 32.3609237,63.9528344 C27.9125188,64.3550535 24.4906688,63.4500605 22.1442575,61.2378556 C20.2866818,59.4781471 19.5045446,57.3162195 19.1623597,55.6067884 C23.6596481,57.1653874 27.4725666,57.7184386 27.8636352,57.768716 L28.2547038,54.6012407 C28.0591695,54.6012407 6.25709703,51.4337654 6.94146702,38.6130321 C7.625837,26.1945179 18.0869211,21.518721 21.7043053,20.865115 C22.9752782,20.6137281 24.4417853,20.6137281 26.3482445,20.865115 L26.6904295,17.6473623 C24.5395524,17.3959754 22.7797439,17.3959754 21.166586,17.6976397 C20.824401,17.7479171 20.4333325,17.8484719 20.0422639,17.9490266 C21.3132368,13.6251715 24.8817374,4.82662901 33.240828,3.41886222 C38.6180207,2.51386928 46.097207,5.78189934 48.7369198,10.0051997 C46.6349263,12.0162951 45.3639535,13.6754489 45.3150699,13.7257263 L47.808132,15.6362669 C47.9058991,15.4854347 58.7091682,1.00554771 70.8322937,7.49133044 C82.6621178,13.826281 78.9469664,33.4344614 78.8980828,33.6355709 L81.9777478,34.2891769 C82.0755149,33.8366805 83.1509535,28.2558907 82.4176999,21.9209401 C85.3018306,21.2170567 90.9723248,20.865115 95.3229625,27.3508977 C99.0381139,32.9316875 94.6385926,39.8699667 91.6078112,43.5904933 C90.9234412,40.1213537 89.6524684,37.8588713 89.6524684,37.7583165 L86.963872,39.3671929 C87.0127556,39.4677476 93.7098047,51.6348749 82.1243985,61.1373008 C79.2891514,63.3997832 74.9873972,63.2992284 70.5878759,60.8356365 C65.9928202,58.2714898 62.9131553,53.9979121 63.2553403,50.729882 L60.1267918,50.4282177 C59.980141,52.1376488 60.3712096,53.9476347 61.2511139,55.7576206 C58.4647504,56.6626135 56.0694554,56.6626135 54.0163454,55.7073432 C50.4478448,54.0984668 49.1279884,50.1265534 49.1279884,50.076276 L46.1460906,51.0818237 C46.1949742,51.2829332 47.8570156,56.4112266 52.696489,58.6234315 C54.1629962,59.2770375 55.7272704,59.6289792 57.3893118,59.6289792 C58.3669832,59.6289792 59.3446546,59.5284245 60.4200932,59.2770375 C57.9759147,61.4892425 56.2649897,64.1036666 55.1895511,66.0142072 C51.8654683,61.941739 45.5594877,57.8189934 43.1153092,56.3106718 C43.3597271,53.595693 42.8708914,51.4337654 42.8708914,51.2829332 L39.7912264,51.9365393 C39.84011,51.9868166 40.9155485,57.4167743 38.3736029,60.9361913 Z M63.6464088,110.107474 C57.487079,109.202481 57.8292639,108.800262 55.9716883,108.448321 C54.1141126,108.096379 54.5540647,107.895269 51.3277491,107.895269 C49.9101255,107.895269 48.5413855,107.844992 47.123762,107.844992 C45.9505563,107.844992 44.728467,107.844992 43.4086106,107.794715 C46.781577,103.470859 48.1992005,94.9237039 47.5637141,82.6560218 C46.8304606,68.4275217 41.5999185,63.7014475 40.7688978,63.0478415 C40.8177814,62.9975641 40.866665,62.9472867 40.9155485,62.8467319 C41.6488021,61.8411842 42.1376378,60.7853591 42.4798228,59.729534 C44.1418642,60.6848043 51.5232833,65.2600464 54.065229,69.8855659 L55.6295033,72.7010995 L56.8515925,69.7347337 C56.9004761,69.6844564 59.5401889,63.3495058 64.4774295,60.1820305 C65.4551009,61.1373008 66.5305395,62.0422937 67.7037452,62.8467319 C63.8419431,65.0589369 59.5890725,69.4330694 60.1267918,76.4719034 C60.3712096,79.5388239 60.322326,82.806854 60.322326,86.0246066 C60.2734425,94.1695431 60.2245589,101.861983 63.8419431,106.789167 C65.0640324,108.498598 66.7260738,109.705255 68.5347659,110.509693 C67.0682588,110.459416 65.4551009,110.308584 63.6464088,110.107474 Z" id="Shape"></path>
                    <g transform="translate(0.000000, 113.626891)" id="Shape">
                        <path d="M89.4569341,1.40776679 C80.6090078,3.61997176 71.2233623,2.81553359 61.2511139,2.01109542 C58.5136339,1.80998588 55.6783868,1.55859895 52.8431398,1.40776679 C45.0217685,0.955270325 41.5021514,1.20665725 37.0048629,1.60887634 C33.8763144,1.86026326 30.3566973,2.16192758 24.6862031,2.21220496 C16.3759961,2.31275973 9.19011126,1.35748941 4.88835705,0.804438169 C2.88413066,0.553051241 1.22208926,0.351941699 0.0488835705,0.301664313 L0.0488835705,1.10610248 C1.36873998,1.20665725 3.42184994,1.40776679 4.79058991,1.60887634 C9.09234412,2.21220496 16.3271126,3.16747529 24.6862031,3.06692052 C30.4055809,2.96636575 33.925198,2.71497882 37.0537465,2.46359189 C41.5021514,2.11165019 45.0217685,1.80998588 52.7942562,2.26248235 C55.6295033,2.41331451 58.4647504,2.66470143 61.2022303,2.86581098 C66.3350052,3.26803006 71.3211294,3.67024914 76.1606029,3.67024914 C80.8045421,3.67024914 85.3018306,3.31830745 89.6524684,2.21220496 C97.8649082,0.150832157 103.486519,1.55859895 105.539629,2.26248235 L105.539629,1.40776679 C103.193217,0.603328626 97.5716068,-0.603328626 89.4569341,1.40776679 Z"></path>
                        <path d="M89.8480026,3.8210813 C81.0000764,6.03328626 71.6144308,5.2288481 61.6421824,4.42440993 C58.9047025,4.22330038 56.0694554,3.97191346 53.2342083,3.8210813 C45.412837,3.36858483 41.89322,3.61997176 37.3959315,4.02219084 C34.2673829,4.27357777 30.7477659,4.57524208 25.0772717,4.62551947 C16.7670647,4.72607424 9.58117983,3.77080392 5.27942562,3.21775267 C3.03078137,2.91608836 1.22208926,2.71497882 0.0488835705,2.71497882 L0.0488835705,3.51941699 C1.36873998,3.56969437 3.66626779,3.87135869 5.18165848,4.07246823 C9.48341268,4.67579685 16.7181811,5.63106718 25.0772717,5.53051241 C30.7966494,5.42995764 34.3162665,5.17857071 37.444815,4.92718378 C41.89322,4.57524208 45.412837,4.27357777 53.1853247,4.72607424 C56.0205718,4.8769064 58.8558189,5.12829332 61.5932989,5.32940287 C66.7260738,5.73162195 71.712198,6.13384104 76.5516715,6.13384104 C81.1956107,6.13384104 85.6928992,5.78189934 90.0435369,4.67579685 C98.5003946,2.56414666 103.828704,3.97191346 105.539629,4.5249647 L105.539629,3.67024914 C103.486519,2.91608836 98.1582096,1.75970849 89.8480026,3.8210813 Z"></path>
                        <path d="M90.6301398,6.63661489 C81.7822135,8.84881985 72.396568,8.04438169 62.4243196,7.23994352 C59.6868396,7.03883397 56.8515925,6.78744705 54.0163454,6.63661489 C46.1949742,6.18411842 42.6753571,6.43550535 38.1780686,6.83772443 C35.0495201,7.08911136 31.529903,7.39077567 25.8594088,7.44105306 C17.5492018,7.54160783 10.363317,6.58633751 6.06156275,6.03328626 C3.27519923,5.68134457 1.12432212,5.42995764 0.0488835705,5.53051241 L0.0488835705,6.28467319 C0.87990427,6.23439581 4.05733635,6.58633751 5.96379561,6.83772443 C10.2655498,7.44105306 17.5003183,8.39632338 25.8594088,8.29576861 C31.5787866,8.19521384 35.0984036,7.94382691 38.2269522,7.69243999 C42.6753571,7.34049829 46.1949742,7.03883397 53.9674619,7.49133044 C56.802709,7.6421626 59.6379561,7.89354953 62.375436,8.09465907 C67.5082109,8.49687816 72.4943351,8.89909724 77.3338086,8.89909724 C81.9777478,8.89909724 86.4750363,8.54715554 90.8256741,7.44105306 C98.4026275,5.58078979 103.388752,6.58633751 105.539629,7.2902209 L105.539629,6.43550535 C103.144334,5.68134457 98.1093261,4.77635163 90.6301398,6.63661489 Z"></path>
                    </g>
                </g>
            </g>
        </g>
    </g>
</svg>