<?xml version="1.0" encoding="UTF-8"?>
<svg width="93px" height="60px" viewBox="0 0 93 60" version="1.1" xmlns="http://www.w3.org/2000/svg" xmlns:xlink="http://www.w3.org/1999/xlink">
    <!-- Generator: Sketch 45.2 (43514) - http://www.bohemiancoding.com/sketch -->
    <title>cycle-1</title>
    <desc>Created with Sketch.</desc>
    <defs></defs>
    <g id="Page-1" stroke="none" stroke-width="1" fill="none" fill-rule="evenodd">
        <g id="BetterDesk" transform="translate(-180.000000, -3367.000000)" fill-rule="nonzero" fill="#000000">
            <g id="cycle-1" transform="translate(180.000000, 3367.000000)">
                <g id="Group">
                    <path d="M79.8828358,0.62962963 C76.3432836,1.88888889 71.936194,3.44444444 61.5257463,2 C53.3708955,0.851851852 51.8093284,0.888888889 48.7208955,0.962962963 C47.8533582,0.962962963 46.8817164,1 45.5630597,1 C42.6134328,1 40.8436567,1.37037037 38.5533582,1.81481481 C36.0895522,2.2962963 33.0011194,2.92592593 26.9630597,3.40740741 C15.6156716,4.33333333 6.31567164,1.55555556 6.21156716,1.51851852 L6.00335821,1.48148148 C2.15149254,0.962962963 0.763432836,1.92592593 0.347014925,2.37037037 L0.347014925,4.44444444 C0.27761194,4.51851852 0.347014925,4.55555556 0.347014925,4.55555556 C0.347014925,4.55555556 2.94962687,4.03703704 5.55223881,4.37037037 C6.5238806,4.66666667 13.2212687,6.51851852 22.1395522,6.51851852 C23.7705224,6.51851852 25.436194,6.48148148 27.0671642,6.33333333 C33.2440299,5.85185185 36.4365672,5.22222222 38.9697761,4.7037037 C41.1906716,4.25925926 42.7869403,3.92592593 45.4936567,3.92592593 C46.8123134,3.92592593 47.8533582,3.92592593 48.7208955,3.88888889 C51.7052239,3.81481481 53.1973881,3.77777778 61.1440299,4.88888889 C71.3462687,6.2962963 76.0309701,5.03703704 80.7156716,3.37037037 C83.7,2.2962963 90.7791045,4.03703704 92.930597,4.81481481 L92.930597,2.07407407 C92.0630597,1.77777778 84.2552239,-0.925925926 79.8828358,0.62962963 Z" id="Shape"></path>
                    <path d="M49.033209,8.96296296 L48.616791,8.81481481 L48.2003731,8.96296296 C47.9921642,9.03703704 43.4115672,10.8148148 38.7962687,14.8148148 C32.5847015,20.1851852 29.2880597,26.9259259 29.2880597,34.3703704 C29.2880597,48.4074074 37.9634328,59.8518519 48.6514925,59.8518519 C59.3048507,59.8518519 68.0149254,48.4074074 68.0149254,34.4074074 C68.0149254,15.2962963 49.2067164,9.03703704 49.033209,8.96296296 Z M48.6514925,56.962963 C39.455597,56.962963 31.9947761,46.8148148 31.9947761,34.3703704 C31.9947761,19.9259259 46.0488806,13.037037 48.686194,11.8518519 C51.3235075,12.8518519 65.308209,18.9259259 65.308209,34.3703704 C65.308209,46.8148148 57.8473881,56.962963 48.6514925,56.962963 Z" id="Shape"></path>
                    <path d="M39.5597015,21 L39.1432836,20.4444444 C38.9350746,20.5925926 34.1462687,24.6666667 33.2440299,36.037037 L33.9033582,36.1111111 C34.7708955,25.1111111 39.4902985,21.037037 39.5597015,21 Z" id="Shape"></path>
                    <path d="M40.3231343,23.1851852 C40.1843284,23.4074074 36.6794776,28.5555556 36.1242537,35.8518519 L36.7835821,35.9259259 C37.3041045,28.8148148 40.8089552,23.6666667 40.8783582,23.6296296 L40.3231343,23.1851852 Z" id="Shape"></path>
                    <path d="M39.316791,34.9259259 L40.0108209,34.9259259 C40.0108209,30.7037037 42.058209,28.0740741 42.0929104,28.0740741 L41.5723881,27.5925926 C41.4682836,27.7037037 39.316791,30.4444444 39.316791,34.9259259 Z" id="Shape"></path>
                </g>
            </g>
        </g>
    </g>
</svg>