<?xml version="1.0" encoding="UTF-8"?>
<svg width="134px" height="66px" viewBox="0 0 134 66" version="1.1" xmlns="http://www.w3.org/2000/svg" xmlns:xlink="http://www.w3.org/1999/xlink">
    <!-- Generator: Sketch 45.2 (43514) - http://www.bohemiancoding.com/sketch -->
    <title>Page 1</title>
    <desc>Created with Sketch.</desc>
    <defs>
        <polygon id="path-1" points="0 66 133.225778 66 133.225778 0.226027397 0 0.226027397"></polygon>
    </defs>
    <g id="Page-1" stroke="none" stroke-width="1" fill="none" fill-rule="evenodd">
        <g id="BetterDesk" transform="translate(-1127.000000, -3319.000000)">
            <g id="Page-1" transform="translate(1127.000000, 3319.000000)">
                <polygon id="Fill-1" fill="#D0C8C8" points="66.5842646 54.7105263 66.5154769 54.7105263 31.4765101 54.7105263 42.6823982 65.1315789 90.418273 65.1315789 101.624161 54.7105263"></polygon>
                <g id="Group-23">
                    <path d="M114.435162,45.9784027 L95.5020792,23.3394986 C95.5020792,23.3394986 86.9716764,18.0848137 66.5813431,18.0848137 L66.6492736,18.0848137 C46.2598708,18.0848137 37.7285375,23.3394986 37.7285375,23.3394986 L18.7973153,45.9784027 L114.435162,45.9784027 Z" id="Fill-2" fill="#D6D5D5"></path>
                    <path d="M66.6496458,45.9784027 L114.435535,45.9784027 L95.5024514,23.3394986 C95.5024514,23.3394986 86.9878681,18.0992795 66.6496458,18.0848137 L66.6496458,45.9784027 Z" id="Fill-4" fill="#D6D5D5"></path>
                    <path d="M133.22159,51.1047041 C133.22159,51.1047041 132.040715,51.6534986 129.443535,52.4789507 C121.970243,54.8730329 102.747757,59.5301014 66.6422014,59.5301014 L66.5789236,59.5301014 C30.4761597,59.5301014 11.2508819,54.8730329 3.77665972,52.4789507 C1.17947917,51.6534986 0.000465277778,51.1047041 0.000465277778,51.1047041 C0.367104167,50.7475808 1.23159028,50.2801562 2.52971528,49.7295534 C12.0995486,45.6691973 44.8067153,37.1633342 66.6105625,37.1470603 C88.4302292,37.1633342 121.138326,45.6691973 130.69234,49.7295534 C131.989535,50.2801562 132.857743,50.7475808 133.22159,51.1047041" id="Fill-6" fill="#F4F4F4"></path>
                    <path d="M66.6460167,59.5303726 C102.751572,59.5303726 121.974989,54.8733041 129.44735,52.4783178 C132.044531,51.6537699 133.225406,51.1049753 133.225406,51.1049753 C132.860628,50.7478521 131.99335,50.2804274 130.696156,49.7289205 C121.142142,45.6694685 88.4340444,37.1636055 66.6143778,37.1464274 L66.6143778,59.5303726 L66.6460167,59.5303726 Z" id="Fill-8" fill="#F4F4F4"></path>
                    <path d="M45.0187889,31.419074 C45.0187889,33.5401151 43.2470111,35.2615397 41.0648583,35.2615397 C38.8808444,35.2615397 37.1118583,33.5401151 37.1118583,31.419074 C37.1118583,29.2980329 38.8808444,27.5793205 41.0648583,27.5793205 C43.2470111,27.5793205 45.0187889,29.2980329 45.0187889,31.419074" id="Fill-10" fill="#FFFFFF"></path>
                    <path d="M61.557925,28.9296986 C61.557925,31.0498356 59.7908,32.7703562 57.6058556,32.7703562 C55.4237028,32.7703562 53.6528556,31.0498356 53.6528556,28.9296986 C53.6528556,26.8086575 55.4237028,25.0872329 57.6058556,25.0872329 C59.7908,25.0872329 61.557925,26.8086575 61.557925,28.9296986" id="Fill-12" fill="#FFFFFF"></path>
                    <path d="M88.2686847,31.419074 C88.2686847,33.5401151 90.0395319,35.2615397 92.2216847,35.2615397 C94.4066292,35.2615397 96.1756153,33.5401151 96.1756153,31.419074 C96.1756153,29.2980329 94.4066292,27.5793205 92.2216847,27.5793205 C90.0395319,27.5793205 88.2686847,29.2980329 88.2686847,31.419074" id="Fill-14" fill="#FFFFFF"></path>
                    <path d="M71.7286181,28.9296986 C71.7286181,31.0498356 73.4948125,32.7703562 75.6806875,32.7703562 C77.8628403,32.7703562 79.6327569,31.0498356 79.6327569,28.9296986 C79.6327569,26.8086575 77.8628403,25.0872329 75.6806875,25.0872329 C73.4948125,25.0872329 71.7286181,26.8086575 71.7286181,28.9296986" id="Fill-16" fill="#FFFFFF"></path>
                    <path d="M133.22159,51.1047041 L129.443535,52.4789507 L3.77665972,52.4789507 C1.17947917,51.6534986 0.000465277778,51.1047041 0.000465277778,51.1047041 C0.367104167,50.7475808 1.23159028,50.2801562 2.52971528,49.7295534 L130.69234,49.7295534 L133.22159,51.1047041 Z" id="Fill-18" fill="#D0C8C8"></path>
                    <mask id="mask-2" fill="white">
                        <use xlink:href="#path-1"></use>
                    </mask>
                    <g id="Clip-21"></g>
                    <polygon id="Fill-20" fill="#D0C8C8" mask="url(#mask-2)" points="65.7484028 18.0849041 67.4150278 18.0849041 67.4150278 2.38413699 65.7484028 2.38413699"></polygon>
                    <path d="M68.7988569,2.38386575 C68.7988569,3.57548219 67.8078153,4.54197534 66.5813431,4.54197534 C65.3567319,4.54197534 64.3610375,3.57548219 64.3610375,2.38386575 C64.3610375,1.19315342 65.3567319,0.225756164 66.5813431,0.225756164 C67.8078153,0.225756164 68.7988569,1.19315342 68.7988569,2.38386575" id="Fill-22" fill="#D6D5D5" mask="url(#mask-2)"></path>
                </g>
            </g>
        </g>
    </g>
</svg>